<?xml version="1.0" encoding="UTF-8"?>
<svg version="1.1" xmlns="http://www.w3.org/2000/svg" width="500" height="500">
<path d="M0 0 C0.96326202 -0.00335861 1.92652405 -0.00671722 2.91897583 -0.01017761 C6.13072989 -0.01973337 9.34243178 -0.02163515 12.55419922 -0.02270508 C14.80638652 -0.02592205 17.05857362 -0.02928645 19.3107605 -0.03279114 C24.06069418 -0.03879911 28.81060966 -0.04063009 33.56054688 -0.04003906 C38.37243485 -0.03995873 43.18422576 -0.04674389 47.99609375 -0.06054688 C118.76743703 -0.26026943 118.76743703 -0.26026943 143.54638672 4.89526367 C144.88095296 5.15993561 146.21559016 5.42425001 147.55029297 5.68823242 C157.88105208 7.77727137 167.83697591 10.5433671 177.73388672 14.14526367 C179.1124334 14.62286528 180.49133906 15.09943204 181.87060547 15.57495117 C195.7028287 20.44610505 208.57095324 26.94529639 220.73388672 35.14526367 C222.31169922 36.16620117 222.31169922 36.16620117 223.92138672 37.20776367 C236.44071286 45.83218835 247.10878631 56.33192329 257.73388672 67.14526367 C261.93056567 65.52181817 264.634474 62.41169574 267.67138672 59.22729492 C268.82460421 58.04393464 269.97826333 56.86100459 271.13232422 55.6784668 C272.94138923 53.81345386 274.74627466 51.9448292 276.54345703 50.06835938 C278.28341977 48.25609573 280.0384988 46.45965204 281.79638672 44.66479492 C282.33191162 44.09718948 282.86743652 43.52958405 283.41918945 42.94477844 C284.95654297 41.38671875 284.95654297 41.38671875 287.73388672 39.14526367 C289.98266602 39.16650391 289.98266602 39.16650391 291.73388672 40.14526367 C305.07903932 54.74235673 314.7291739 74.45017841 320.73388672 93.14526367 C320.9552832 93.8265332 321.17667969 94.50780273 321.40478516 95.2097168 C336.6882301 143.64095643 331.92663066 197.72852414 309.73388672 243.14526367 C307.01558529 248.35653635 303.76509607 253.19685683 300.42138672 258.02026367 C299.93935791 258.71700195 299.4573291 259.41374023 298.96069336 260.1315918 C290.6211388 272.11491164 290.6211388 272.11491164 287.73388672 275.14526367 C287.07388672 275.14526367 286.41388672 275.14526367 285.73388672 275.14526367 C285.36263672 275.98057617 285.36263672 275.98057617 284.98388672 276.83276367 C281.75012272 282.81522706 276.86773374 286.8455593 271.73388672 291.14526367 C270.87150391 291.87229492 270.00912109 292.59932617 269.12060547 293.34838867 C241.58488997 316.24937978 208.8283324 329.98960056 173.85888672 336.83276367 C172.36591064 337.13670044 172.36591064 337.13670044 170.84277344 337.44677734 C149.39924189 341.41345007 127.32755037 341.43969693 105.59716797 341.34057617 C103.12469092 341.33683108 100.65221236 341.33399122 98.17973328 341.33200073 C91.77344427 341.32448179 85.36725067 341.30493911 78.96099854 341.28259277 C72.38335459 341.26187643 65.80569474 341.25294475 59.22802734 341.24291992 C46.39660719 341.22167811 33.5652521 341.18809267 20.73388672 341.14526367 C18.88871079 337.71264124 18.49683993 335.42766193 18.53857422 331.50463867 C18.54501953 330.4347168 18.55146484 329.36479492 18.55810547 328.26245117 C18.57486328 327.1512793 18.59162109 326.04010742 18.60888672 324.89526367 C18.61791016 323.76862305 18.62693359 322.64198242 18.63623047 321.48120117 C18.65978014 318.70234002 18.69266992 315.92390978 18.73388672 313.14526367 C18.28013672 313.64026367 17.82638672 314.13526367 17.35888672 314.64526367 C15.73388672 316.14526367 15.73388672 316.14526367 13.73388672 316.14526367 C13.49597412 316.70697266 13.25806152 317.26868164 13.01293945 317.84741211 C10.28755772 322.7436314 5.73714693 326.46825349 1.79638672 330.39526367 C0.87664062 331.33112305 -0.04310547 332.26698242 -0.99072266 333.23120117 C-1.874375 334.11549805 -2.75802734 334.99979492 -3.66845703 335.91088867 C-4.88263306 337.12953613 -4.88263306 337.12953613 -6.12133789 338.37280273 C-8.26611328 340.14526367 -8.26611328 340.14526367 -11.26611328 340.14526367 C-11.26611328 228.27526367 -11.26611328 116.40526367 -11.26611328 1.14526367 C-7.80741118 -0.58408738 -3.80720751 -0.00188563 0 0 Z M92.73388672 104.14526367 C92.73388672 147.04526367 92.73388672 189.94526367 92.73388672 234.14526367 C98.65128926 229.07320435 104.17100211 223.89146548 109.67138672 218.39526367 C110.54601562 217.53288086 111.42064453 216.67049805 112.32177734 215.78198242 C113.14742187 214.95827148 113.97306641 214.13456055 114.82373047 213.28588867 C115.57517334 212.53855469 116.32661621 211.7912207 117.10083008 211.02124023 C118.95274821 209.30837944 118.95274821 209.30837944 118.73388672 207.14526367 C120.71388672 206.65026367 120.71388672 206.65026367 122.73388672 206.14526367 C122.71817627 207.01328613 122.70246582 207.88130859 122.6862793 208.77563477 C122.63519117 211.99224654 122.59755645 215.2086518 122.5690918 218.42553711 C122.55399314 219.81850989 122.53351228 221.21143505 122.50756836 222.60424805 C122.4712355 224.60469252 122.45577479 226.60548194 122.44091797 228.60620117 C122.42520752 229.81066895 122.40949707 231.01513672 122.39331055 232.25610352 C122.50570068 233.20952637 122.61809082 234.16294922 122.73388672 235.14526367 C126.170528 237.43635786 127.02528016 237.32580303 131.00341797 237.00854492 C132.57397949 236.88697021 132.57397949 236.88697021 134.17626953 236.76293945 C135.84447754 236.61187744 135.84447754 236.61187744 137.54638672 236.45776367 C138.68043945 236.35963379 139.81449219 236.26150391 140.98291016 236.16040039 C149.10192616 235.40846747 156.85680518 234.30184255 164.73388672 232.14526367 C165.77802734 231.88100586 166.82216797 231.61674805 167.89794922 231.34448242 C174.34356836 229.56448784 180.25927437 227.10528228 186.23388672 224.14526367 C186.90468262 223.81308838 187.57547852 223.48091309 188.26660156 223.13867188 C192.12719503 221.1577444 195.41891958 218.98013212 198.73388672 216.14526367 C199.36810547 215.65026367 200.00232422 215.15526367 200.65576172 214.64526367 C216.09659851 201.97585913 222.91870838 184.44013236 225.27294922 165.12963867 C226.63003168 149.28648992 225.60177611 129.81343508 216.73388672 116.14526367 C212.94695197 118.23729378 210.08094329 120.56214126 207.04638672 123.63745117 C206.18271484 124.50756836 205.31904297 125.37768555 204.42919922 126.27416992 C203.09501953 127.63348633 203.09501953 127.63348633 201.73388672 129.02026367 C200.39970703 130.36797852 200.39970703 130.36797852 199.03857422 131.74291992 C197.37610265 133.4227606 195.7157015 135.1046548 194.05810547 136.78930664 C191.62793207 139.25266518 189.18313965 141.70088757 186.73388672 144.14526367 C183.06478118 142.92222849 182.28947639 141.5728644 179.98388672 138.52026367 C164.18721182 118.41799688 143.2967091 110.84878285 118.73388672 106.14526367 C110.15388672 105.48526367 101.57388672 104.82526367 92.73388672 104.14526367 Z " fill="#0196E5" transform="translate(100.26611328125,81.854736328125)"/>
<path d="M0 0 C28.72624499 2.47640043 58.18301635 13.94314274 82 30 C83.5778125 31.0209375 83.5778125 31.0209375 85.1875 32.0625 C97.70682614 40.68692468 108.37489959 51.18665962 119 62 C123.19667896 60.3765545 125.90058728 57.26643207 128.9375 54.08203125 C130.0907175 52.89867096 131.24437661 51.71574092 132.3984375 50.53320312 C134.20750251 48.66819019 136.01238794 46.79956553 137.80957031 44.9230957 C139.54953305 43.11083206 141.30461208 41.31438837 143.0625 39.51953125 C143.5980249 38.95192581 144.1335498 38.38432037 144.68530273 37.79951477 C146.22265625 36.24145508 146.22265625 36.24145508 149 34 C151.2487793 34.02124023 151.2487793 34.02124023 153 35 C166.3451526 49.59709306 175.99528718 69.30491473 182 88 C182.22139648 88.68126953 182.44279297 89.36253906 182.67089844 90.06445312 C197.95434338 138.49569276 193.19274394 192.58326047 171 238 C168.28169857 243.21127268 165.03120935 248.05159316 161.6875 252.875 C161.20547119 253.57173828 160.72344238 254.26847656 160.22680664 254.98632812 C151.88725208 266.96964797 151.88725208 266.96964797 149 270 C148.34 270 147.68 270 147 270 C146.62875 270.8353125 146.62875 270.8353125 146.25 271.6875 C143.01623601 277.66996339 138.13384702 281.70029562 133 286 C132.13761719 286.72703125 131.27523437 287.4540625 130.38671875 288.203125 C121.44612462 295.63886665 112.1597577 302.32654835 102 308 C101.13761719 308.48218994 101.13761719 308.48218994 100.2578125 308.97412109 C90.39553653 314.40911498 80.99230128 317.69462374 70 320 C67.54093223 320.58022947 65.08253845 321.1633269 62.625 321.75 C57.26595745 323 57.26595745 323 55 323 C55 323.66 55 324.32 55 325 C54.44127197 325.11069824 53.88254395 325.22139648 53.30688477 325.33544922 C50.72521184 325.84757383 48.14385577 326.36127923 45.5625 326.875 C44.68400391 327.04902344 43.80550781 327.22304688 42.90039062 327.40234375 C38.82195557 328.21502085 34.76475729 329.053534 30.72265625 330.03125 C24.50976205 331.414619 18.20352711 332.02572466 11.875 332.625 C11.19188751 332.69103424 10.50877502 332.75706848 9.80496216 332.82510376 C-11.39607243 334.80510241 -32.73310747 334.26708598 -54 334 C-54.33 333.34 -54.66 332.68 -55 332 C-56.10456543 332.05329468 -56.10456543 332.05329468 -57.23144531 332.10766602 C-60.57070847 332.26536222 -63.9103145 332.4140288 -67.25 332.5625 C-68.40886719 332.61857422 -69.56773437 332.67464844 -70.76171875 332.73242188 C-71.87675781 332.78076172 -72.99179688 332.82910156 -74.140625 332.87890625 C-75.16704102 332.9260376 -76.19345703 332.97316895 -77.25097656 333.02172852 C-79.74189445 333.00204009 -81.61548317 332.61844084 -84 332 C-85.87030746 332.23170104 -87.74023143 332.46830251 -89.60546875 332.73779297 C-94.38549519 333.26121756 -99.19752627 333.10156894 -104 333.0625 C-105.06089844 333.05798828 -106.12179688 333.05347656 -107.21484375 333.04882812 C-109.80995598 333.03713843 -112.40494709 333.02075276 -115 333 C-116.13864484 328.63108795 -116.63623145 324.50319661 -116 320 C-114 317.4375 -114 317.4375 -112 316 C-112.70125 315.29875 -113.4025 314.5975 -114.125 313.875 C-114.74375 312.92625 -115.3625 311.9775 -116 311 C-115.25 307.6875 -115.25 307.6875 -114 305 C-114.66 304.67 -115.32 304.34 -116 304 C-115.39671875 303.40832031 -114.7934375 302.81664062 -114.171875 302.20703125 C-110.20370091 298.28365913 -106.4295677 294.40944418 -103 290 C-101.3429084 288.32381296 -99.67474534 286.65854865 -98 285 C-96.24976271 283.22653296 -94.50125268 281.4513602 -92.75415039 279.67480469 C-87.70035945 274.53955453 -82.63405547 269.41684614 -77.56034184 264.30128098 C-74.49845973 261.21322688 -71.4414623 258.12063062 -68.39477539 255.01757812 C-65.43681936 252.0052768 -62.46679494 249.00537481 -59.4880352 246.01364899 C-58.35814325 244.87453742 -57.23265229 243.73104257 -56.11174202 242.58309174 C-54.5443801 240.97939576 -52.96201901 239.39207509 -51.37524414 237.80761719 C-50.03218956 236.44790802 -50.03218956 236.44790802 -48.66200256 235.06072998 C-45.65855901 232.73568107 -43.7142436 232.42111855 -40 232 C-38.09737623 230.20506506 -38.09737623 230.20506506 -36.75 227.9375 C-35.87396285 226.59753995 -34.96566147 225.27688369 -34 224 C-33.34 224 -32.68 224 -32 224 C-31.443125 222.6078125 -31.443125 222.6078125 -30.875 221.1875 C-28.66667837 217.43335323 -27.02376758 216.50891284 -23 215 C-22.01 215 -21.02 215 -20 215 C-20.0721875 215.83144531 -20.144375 216.66289062 -20.21875 217.51953125 C-20.3115625 218.60621094 -20.404375 219.69289063 -20.5 220.8125 C-20.5928125 221.89144531 -20.685625 222.97039062 -20.78125 224.08203125 C-21.03737838 227.01090811 -21.03737838 227.01090811 -21 230 C-19.37064759 231.37868281 -17.70250393 232.71274093 -16 234 C-15.67 234.66 -15.34 235.32 -15 236 C-13.27119018 236.05449838 -11.54187288 236.09301688 -9.8125 236.125 C-8.84957031 236.14820313 -7.88664062 236.17140625 -6.89453125 236.1953125 C-3.7772897 235.98497231 -1.87856199 235.19434007 1 234 C4.39459647 233.05354143 7.82074295 232.24792049 11.25 231.4375 C12.15363281 231.21642578 13.05726563 230.99535156 13.98828125 230.76757812 C18.99677615 229.57490776 23.87354056 228.74307629 28.99511719 228.2487793 C31.80089097 227.90062008 34.34183308 227.13522713 37 226.1875 C38.3921875 225.71376953 38.3921875 225.71376953 39.8125 225.23046875 C40.534375 224.82441406 41.25625 224.41835938 42 224 C42.14953125 223.35675781 42.2990625 222.71351563 42.453125 222.05078125 C43 220 43 220 45.546875 218.4375 C46.60390625 217.963125 47.6609375 217.48875 48.75 217 C53.02118745 215.06428943 56.42734138 213.04158774 60 210 C60.56203125 209.5771875 61.1240625 209.154375 61.703125 208.71875 C67.872017 203.85841085 73.74738502 196.83288306 77.07421875 189.6953125 C78 188 78 188 81 187 C88.45975722 173.12265753 88.40461736 156.6421076 88.125 141.375 C88.0897434 138.81672311 88.05902657 136.2584978 88.03366089 133.70010376 C88.01688457 132.12513009 87.99391472 130.55020564 87.96365356 128.97543335 C87.91156979 125.17536055 88.06803865 121.69238542 89 118 C88.401875 117.79375 87.80375 117.5875 87.1875 117.375 C84.08935669 115.42759563 83.26310259 113.39043326 82 110 C82.35313353 105.94599488 83.48311873 104.02891887 86.37890625 101.23046875 C87.05244141 100.56982422 87.72597656 99.90917969 88.41992188 99.22851562 C89.12697266 98.55498047 89.83402344 97.88144531 90.5625 97.1875 C91.27341797 96.49462891 91.98433594 95.80175781 92.71679688 95.08789062 C94.46918312 93.3825483 96.23021469 91.68724824 98 90 C97.34 89.67 96.68 89.34 96 89 C96 87.68 96 86.36 96 85 C98.01171875 83.03515625 98.01171875 83.03515625 100.6875 81.0625 C104.4066167 78.23513201 107.78461057 75.40452998 111 72 C111.763125 71.29875 112.52625 70.5975 113.3125 69.875 C115.33448237 68.04877868 115.33448237 68.04877868 115 65 C114.34 64.34 113.68 63.68 113 63 C112.67 62.319375 112.34 61.63875 112 60.9375 C111.15410058 58.83134399 111.15410058 58.83134399 109 58 C108.690625 57.195625 108.38125 56.39125 108.0625 55.5625 C107.15452711 52.70136041 107.15452711 52.70136041 104 51 C104 50.34 104 49.68 104 49 C103.01 48.9071875 103.01 48.9071875 102 48.8125 C96.6307065 47.35831634 92.09276463 44.63914694 89 40 C86.41619823 39.74969023 86.41619823 39.74969023 84 40 C83.4465236 37.92446352 83 36.15634036 83 34 C78.46167247 32.18397483 78.46167247 32.18397483 74 33 C73.34 32.34 72.68 31.68 72 31 C72 30.34 72 29.68 72 29 C70.68 29 69.36 29 68 29 C67.34 29 66.68 29 66 29 C65.74605469 28.38253906 65.49210938 27.76507813 65.23046875 27.12890625 C63.80777408 24.66741864 62.86549526 24.0961285 60.3125 22.9375 C59.58933594 22.60492188 58.86617187 22.27234375 58.12109375 21.9296875 C57.42113281 21.62289062 56.72117187 21.31609375 56 21 C54.96875 20.525625 53.9375 20.05125 52.875 19.5625 C48.11656566 17.54677434 43.19269833 15.94980512 38.3046875 14.28125 C35.26747199 13.10370072 32.74469178 11.73249841 30 10 C22.35488953 6.53806319 14.21849978 5.40632096 6 4 C6 3.34 6 2.68 6 2 C4.02 1.67 2.04 1.34 0 1 C0 0.67 0 0.34 0 0 Z M-24 230 C-23 232 -23 232 -23 232 Z " fill="#00B2F1" transform="translate(239,87)"/>
<path d="M0 0 C17.16 0 34.32 0 52 0 C52 0.33 52 0.66 52 1 C51.44289841 1.01030746 50.88579681 1.02061493 50.31181335 1.03123474 C44.52066308 1.1393002 38.72966839 1.25389827 32.9387207 1.37231445 C30.7766444 1.41566313 28.61453387 1.45733825 26.45239258 1.49731445 C23.34706298 1.55501844 20.24190564 1.61871272 17.13671875 1.68359375 C16.16788254 1.70030624 15.19904633 1.71701874 14.20085144 1.73423767 C12.84979057 1.7641555 12.84979057 1.7641555 11.47143555 1.79467773 C10.67867722 1.81022202 9.88591888 1.8257663 9.06913757 1.84178162 C6.80260226 1.93081226 6.80260226 1.93081226 4 3 C3.97667179 20.97569233 3.95902121 38.95138074 3.94818783 56.92708492 C3.9430247 65.27292829 3.93598169 73.61876227 3.92456055 81.96459961 C3.91461421 89.2361877 3.90814669 96.50776899 3.90591151 103.77936369 C3.90460431 107.63199521 3.90151792 111.48460728 3.89426994 115.33723259 C3.88751052 118.95932672 3.88538288 122.58139328 3.88689232 126.20349312 C3.88648363 128.17497228 3.88108803 130.14644841 3.87557983 132.11791992 C3.8769545 133.28044785 3.87832916 134.44297577 3.87974548 135.64073181 C3.87882369 136.65746947 3.8779019 137.67420713 3.87695217 138.72175503 C3.74382667 140.96647416 3.74382667 140.96647416 5 142 C5.09862038 143.81996506 5.12632134 145.64379566 5.12698364 147.46643066 C5.12980347 148.65275589 5.13262329 149.83908112 5.13552856 151.06135559 C5.13350433 152.3746434 5.1314801 153.68793121 5.12939453 155.04101562 C5.13074855 156.42868597 5.13252848 157.81635596 5.13470459 159.20402527 C5.13927888 162.98284721 5.13748938 166.76164196 5.1343255 170.5404644 C5.13180188 174.48649038 5.13413945 178.43251397 5.13571167 182.37854004 C5.13753336 189.00643331 5.13512708 195.63431545 5.13037109 202.26220703 C5.12492847 209.93583203 5.12669113 217.60943047 5.1321975 225.28305483 C5.13672865 231.85968393 5.13737917 238.43630501 5.13475883 245.01293516 C5.13319607 248.94603123 5.13300227 252.8791148 5.13629532 256.81221008 C5.13917406 260.50901349 5.13719829 264.2057825 5.13140106 267.90258217 C5.12943784 269.91460243 5.13242735 271.92662558 5.13552856 273.93864441 C5.13270874 275.12496964 5.12988892 276.31129486 5.12698364 277.53356934 C5.12660662 278.57113121 5.12622959 279.60869308 5.12584114 280.67769623 C5 283 5 283 4 284 C3.9071274 285.41225046 3.88253228 286.82908934 3.88647461 288.24438477 C3.88655014 289.14524307 3.88662567 290.04610138 3.88670349 290.97425842 C3.89186478 291.95341721 3.89702606 292.93257599 3.90234375 293.94140625 C3.9037587 294.93881332 3.90517365 295.9362204 3.90663147 296.96385193 C3.91224886 300.16343124 3.92480429 303.36294169 3.9375 306.5625 C3.94251276 308.72591045 3.94707605 310.88932199 3.95117188 313.05273438 C3.96222393 318.36851325 3.97897896 323.68425171 4 329 C4.66 329 5.32 329 6 329 C6.226875 328.401875 6.45375 327.80375 6.6875 327.1875 C8 325 8 325 10.3125 323.625 C13.66007962 321.60088209 15.544717 319.02188677 18 316 C19.0828125 315.195625 19.0828125 315.195625 20.1875 314.375 C22.1389318 313.11029492 22.1389318 313.11029492 23 310.9375 C24.28184535 308.45392464 25.48054524 308.11152416 28 307 C29.35113205 306.02418241 30.68946944 305.02970259 32 304 C34 305 34 305 36 308 C35.79375 309.134375 35.5875 310.26875 35.375 311.4375 C34.57417465 315.04873423 34.57417465 315.04873423 36.9375 317.4375 C37.9584375 318.2109375 37.9584375 318.2109375 39 319 C37 322 37 322 35 323 C35 327.29 35 331.58 35 336 C36.19625 335.835 37.3925 335.67 38.625 335.5 C43.94736958 334.89651872 49.21285302 334.9832739 54.5625 335.03515625 C58.30694528 334.99686079 61.91876254 334.6575675 65.62109375 334.12109375 C68 334 68 334 71.1015625 334.5 C76.11529321 335.14304362 80.9042965 334.86180875 85.9375 334.5625 C86.90751953 334.51029297 87.87753906 334.45808594 88.87695312 334.40429688 C91.25170788 334.27561558 93.62593229 334.14070204 96 334 C96.33 334.66 96.66 335.32 97 336 C144.75982283 336.74277654 144.75982283 336.74277654 191.90625 329.8671875 C196.24413858 328.87765941 200.57355173 328.42696056 205 328 C205 327.34 205 326.68 205 326 C206.01320313 325.73445313 207.02640625 325.46890625 208.0703125 325.1953125 C209.42190177 324.83864311 210.77346278 324.48186657 212.125 324.125 C212.79015625 323.95097656 213.4553125 323.77695312 214.140625 323.59765625 C217.24176565 322.77676608 220.27218731 321.90755903 223.3125 320.875 C226.04410622 319.98563983 228.14906823 319.83229813 231 320 C221.74722091 329.25277909 199.13045503 331.93310943 186.5 334.4375 C185.35442627 334.67178711 184.20885254 334.90607422 183.02856445 335.14746094 C161.26463674 339.18948249 138.92395313 339.29593984 116.86328125 339.1953125 C114.3908042 339.19156741 111.91832564 339.18872755 109.44584656 339.18673706 C103.03955755 339.17921812 96.63336395 339.15967544 90.22711182 339.1373291 C83.64946787 339.11661276 77.07180802 339.10768108 70.49414062 339.09765625 C57.66272047 339.07641444 44.83136539 339.042829 32 339 C30.15482407 335.56737756 29.76295321 333.28239825 29.8046875 329.359375 C29.81113281 328.28945313 29.81757812 327.21953125 29.82421875 326.1171875 C29.84097656 325.00601562 29.85773438 323.89484375 29.875 322.75 C29.88402344 321.62335938 29.89304687 320.49671875 29.90234375 319.3359375 C29.92589342 316.55707635 29.9587832 313.7786461 30 311 C29.54625 311.495 29.0925 311.99 28.625 312.5 C27 314 27 314 25 314 C24.7620874 314.56170898 24.5241748 315.12341797 24.27905273 315.70214844 C21.553671 320.59836772 17.00326022 324.32298982 13.0625 328.25 C12.14275391 329.18585938 11.22300781 330.12171875 10.27539062 331.0859375 C9.39173828 331.97023438 8.50808594 332.85453125 7.59765625 333.765625 C6.38348022 334.98427246 6.38348022 334.98427246 5.14477539 336.22753906 C3 338 3 338 0 338 C0 226.46 0 114.92 0 0 Z " fill="#06639E" transform="translate(89,84)"/>
<path d="M0 0 C28.72624499 2.47640043 58.18301635 13.94314274 82 30 C83.051875 30.680625 84.10375 31.36125 85.1875 32.0625 C97.70682614 40.68692468 108.37489959 51.18665962 119 62 C123.19667896 60.3765545 125.90058728 57.26643207 128.9375 54.08203125 C130.0907175 52.89867096 131.24437661 51.71574092 132.3984375 50.53320312 C134.20750251 48.66819019 136.01238794 46.79956553 137.80957031 44.9230957 C139.54953305 43.11083206 141.30461208 41.31438837 143.0625 39.51953125 C143.5980249 38.95192581 144.1335498 38.38432037 144.68530273 37.79951477 C146.22265625 36.24145508 146.22265625 36.24145508 149 34 C151.2487793 34.02124023 151.2487793 34.02124023 153 35 C166.3451526 49.59709306 175.99528718 69.30491473 182 88 C182.22139648 88.68126953 182.44279297 89.36253906 182.67089844 90.06445312 C197.95434338 138.49569276 193.19274394 192.58326047 171 238 C168.28169857 243.21127268 165.03120935 248.05159316 161.6875 252.875 C161.20547119 253.57173828 160.72344238 254.26847656 160.22680664 254.98632812 C151.88725208 266.96964797 151.88725208 266.96964797 149 270 C148.34 270 147.68 270 147 270 C146.62875 270.8353125 146.62875 270.8353125 146.25 271.6875 C143.01623601 277.66996339 138.13384702 281.70029562 133 286 C132.13761719 286.72703125 131.27523437 287.4540625 130.38671875 288.203125 C121.41766076 295.66253957 112.10469207 302.17799039 102 308 C101.03191406 308.57492187 100.06382812 309.14984375 99.06640625 309.7421875 C97.61041016 310.58136719 97.61041016 310.58136719 96.125 311.4375 C95.24070312 311.95183594 94.35640625 312.46617187 93.4453125 312.99609375 C90.73467682 314.10892661 89.6810033 314.05369665 87 313 C88.04168592 309.97911083 88.90587496 309.05691281 91.6875 307.375 C95.0848653 305.96477289 98.44584558 304.93883324 102 304 C102.99 303.67 103.98 303.34 105 303 C105.226875 302.38125 105.45375 301.7625 105.6875 301.125 C107.77841885 297.73970282 111.27631821 297.02401249 115 296 C115.66 296 116.32 296 117 296 C117 295.34 117 294.68 117 294 C121.38461538 291 121.38461538 291 124 291 C124 290.01 124 289.02 124 288 C124.928125 287.62875 124.928125 287.62875 125.875 287.25 C128.15001528 286.17603789 128.15001528 286.17603789 129 283.9375 C130 282 130 282 132.125 281.25 C132.74375 281.1675 133.3625 281.085 134 281 C134.33 279.68 134.66 278.36 135 277 C135.66 277 136.32 277 137 277 C137 276.34 137 275.68 137 275 C137.99 275 138.98 275 140 275 C140 274.34 140 273.68 140 273 C141.32 273 142.64 273 144 273 C144.25523437 272.43410156 144.51046875 271.86820312 144.7734375 271.28515625 C146.14845018 268.72342881 147.77218202 266.67785958 149.625 264.4375 C158.97553347 253.16967443 158.97553347 253.16967443 165 240 C165.66 240 166.32 240 167 240 C167.37125 238.7934375 167.37125 238.7934375 167.75 237.5625 C169.55229409 232.42596184 171.52233637 227.30076539 174.47265625 222.70703125 C176.35838106 219.36481311 177.42565992 215.91006179 178.5 212.25 C178.93123333 210.81088036 179.36351681 209.37207496 179.796875 207.93359375 C180.00248047 207.24894043 180.20808594 206.56428711 180.41992188 205.85888672 C181.11154461 203.64255022 181.92564918 201.48248231 182.75 199.3125 C184.30850522 194.73275839 184.48030872 190.15153216 184.75 185.34765625 C184.99647924 182.0471452 185.475744 178.88068087 186.0625 175.625 C186.8332029 171.30335486 187.18636998 167.3796945 187 163 C187 160.02140989 187.0349436 157.04478076 187.0703125 154.06640625 C187.2312697 136.82495384 187.2312697 136.82495384 186.1875 119.625 C186.08236084 118.45239624 186.08236084 118.45239624 185.97509766 117.25610352 C185.43423348 112.35431952 184.01252106 108.53722614 182 104 C181.4353216 101.53476052 180.93552419 99.05380208 180.5 96.5625 C179.48536402 91.10107677 178.19238182 86.10129819 176 81 C175.72542969 80.27167969 175.45085937 79.54335937 175.16796875 78.79296875 C169.36492454 62.93155421 169.36492454 62.93155421 159 50 C156.13812151 48.73416913 154.10778106 48 151 48 C151.52268466 45.23723823 152.10869587 42.6739124 153 40 C148.95377498 39.63019987 148.95377498 39.63019987 146 42 C144.80767387 44.05003955 144.80767387 44.05003955 144 46 C143.34 46 142.68 46 142 46 C142 46.66 142 47.32 142 48 C141.01 48.495 141.01 48.495 140 49 C139.62875 50.11375 139.62875 50.11375 139.25 51.25 C137.86849332 54.2893147 136.19403527 55.66736648 133.57421875 57.671875 C131.93984022 59.05075515 130.7801495 60.480634 129.5 62.1875 C126.75854525 65.2716366 124.96206979 66.07858842 121 67 C121 66.34 121 65.68 121 65 C118.36 64.67 115.72 64.34 113 64 C112.896875 63.38125 112.79375 62.7625 112.6875 62.125 C112.12474627 59.63473516 112.12474627 59.63473516 109 58 C108.33333333 56.33333333 107.66666667 54.66666667 107 53 C105.515 52.01 105.515 52.01 104 51 C104 50.34 104 49.68 104 49 C103.01 48.9071875 103.01 48.9071875 102 48.8125 C96.6307065 47.35831634 92.09276463 44.63914694 89 40 C86.41619823 39.74969023 86.41619823 39.74969023 84 40 C83.4465236 37.92446352 83 36.15634036 83 34 C78.46167247 32.18397483 78.46167247 32.18397483 74 33 C73.34 32.34 72.68 31.68 72 31 C72 30.34 72 29.68 72 29 C70.68 29 69.36 29 68 29 C67.34 29 66.68 29 66 29 C65.74605469 28.38253906 65.49210937 27.76507813 65.23046875 27.12890625 C63.80777408 24.66741864 62.86549526 24.0961285 60.3125 22.9375 C59.58933594 22.60492188 58.86617188 22.27234375 58.12109375 21.9296875 C57.42113281 21.62289062 56.72117187 21.31609375 56 21 C54.96875 20.525625 53.9375 20.05125 52.875 19.5625 C48.11656566 17.54677434 43.19269833 15.94980512 38.3046875 14.28125 C35.26747199 13.10370072 32.74469178 11.73249841 30 10 C22.35488953 6.53806319 14.21849978 5.40632096 6 4 C6 3.34 6 2.68 6 2 C3.03 1.505 3.03 1.505 0 1 C0 0.67 0 0.34 0 0 Z " fill="#28C7DB" transform="translate(239,87)"/>
<path d="M0 0 C0.33 42.57 0.66 85.14 1 129 C8.92 121.08 16.84 113.16 25 105 C25.99 104.01 26.98 103.02 28 102 C28.66 102 29.32 102 30 102 C31.38308781 104.76617563 31.11210196 107.01018 31.09765625 110.1015625 C31.09443359 111.31328125 31.09121094 112.525 31.08789062 113.7734375 C31.07532227 115.67996094 31.07532227 115.67996094 31.0625 117.625 C31.05798828 118.90375 31.05347656 120.1825 31.04882812 121.5 C31.03701203 124.66671292 31.02053815 127.83333356 31 131 C34.68014181 131.69965178 37.95649139 132.10927053 41.6875 131.765625 C42.54408203 131.68779785 43.40066406 131.6099707 44.28320312 131.52978516 C45.17974609 131.43745605 46.07628906 131.34512695 47 131.25 C47.93263672 131.15638184 48.86527344 131.06276367 49.82617188 130.96630859 C61.00415121 129.77252509 71.54778739 127.31255717 82.2578125 123.8671875 C84.49622184 123.15931446 86.71565642 122.53556381 89 122 C88.80078125 123.8671875 88.80078125 123.8671875 88 126 C82.16620053 129.34923572 75.31433803 130.4083857 68.7421875 131.3671875 C63.55515974 132.24432581 58.44194711 133.39938708 53.3125 134.5625 C52.31887451 134.78478271 51.32524902 135.00706543 50.30151367 135.23608398 C49.37314697 135.44821533 48.44478027 135.66034668 47.48828125 135.87890625 C46.64821533 136.0704126 45.80814941 136.26191895 44.94262695 136.45922852 C43.0105771 136.82556369 43.0105771 136.82556369 42 138 C39.98035801 138.07244053 37.95832876 138.08377188 35.9375 138.0625 C34.83277344 138.05347656 33.72804687 138.04445313 32.58984375 138.03515625 C31.30787109 138.01775391 31.30787109 138.01775391 30 138 C29.01 136.02 29.01 136.02 28 134 C27.34 134 26.68 134 26 134 C24.375 132 24.375 132 23 130 C23.33 129.34 23.66 128.68 24 128 C24.22858114 125.9625237 24.41024278 123.91959697 24.5625 121.875 C24.64628906 120.77929688 24.73007813 119.68359375 24.81640625 118.5546875 C24.90728516 117.29011719 24.90728516 117.29011719 25 116 C19.09092888 118.3544919 19.09092888 118.3544919 15.1875 123.1875 C14.795625 124.115625 14.40375 125.04375 14 126 C12.515 126.495 12.515 126.495 11 127 C9.80973698 128.61035925 9.80973698 128.61035925 8.75 130.5 C6.5869098 133.73471286 6.25810321 133.936532 2.1875 134.9375 C0.6096875 134.9684375 0.6096875 134.9684375 -1 135 C-3.23601547 131.64597679 -3.24800236 130.58123517 -3.24050903 126.66596985 C-3.24325836 125.55959167 -3.24600769 124.4532135 -3.24884033 123.31330872 C-3.24164978 122.0991478 -3.23445923 120.88498688 -3.22705078 119.6340332 C-3.22734283 118.35587738 -3.22763489 117.07772156 -3.22793579 115.76083374 C-3.22851025 112.25486877 -3.21674096 108.7490403 -3.20278788 105.24310708 C-3.19029599 101.57957413 -3.18911124 97.91603814 -3.18673706 94.25248718 C-3.18051775 87.31456888 -3.16410085 80.3767135 -3.14403808 73.43882293 C-3.1216931 65.54048443 -3.11068918 57.64214296 -3.10064721 49.74378073 C-3.079735 33.49581696 -3.04455028 17.24791651 -3 1 C-1 0 -1 0 0 0 Z " fill="#0288E9" transform="translate(193,186)"/>
<path d="M0 0 C9.30935379 8.71623248 14.17303039 24.08510493 18 36 C18.22139648 36.68126953 18.44279297 37.36253906 18.67089844 38.06445312 C33.95434338 86.49569276 29.19274394 140.58326047 7 186 C4.28169857 191.21127268 1.03120935 196.05159316 -2.3125 200.875 C-2.79452881 201.57173828 -3.27655762 202.26847656 -3.77319336 202.98632812 C-12.11274792 214.96964797 -12.11274792 214.96964797 -15 218 C-15.66 218 -16.32 218 -17 218 C-17.2475 218.556875 -17.495 219.11375 -17.75 219.6875 C-20.98376399 225.66996339 -25.86615298 229.70029562 -31 234 C-31.86238281 234.72703125 -32.72476563 235.4540625 -33.61328125 236.203125 C-42.58233924 243.66253957 -51.89530793 250.17799039 -62 256 C-62.96808594 256.57492187 -63.93617188 257.14984375 -64.93359375 257.7421875 C-65.90425781 258.30164063 -66.87492187 258.86109375 -67.875 259.4375 C-69.20144531 260.20900391 -69.20144531 260.20900391 -70.5546875 260.99609375 C-73.26532318 262.10892661 -74.3189967 262.05369665 -77 261 C-75.95831408 257.97911083 -75.09412504 257.05691281 -72.3125 255.375 C-68.9151347 253.96477289 -65.55415442 252.93883324 -62 252 C-61.01 251.67 -60.02 251.34 -59 251 C-58.773125 250.38125 -58.54625 249.7625 -58.3125 249.125 C-56.22158115 245.73970282 -52.72368179 245.02401249 -49 244 C-48.34 244 -47.68 244 -47 244 C-47 243.34 -47 242.68 -47 242 C-42.61538462 239 -42.61538462 239 -40 239 C-40 238.01 -40 237.02 -40 236 C-39.38125 235.7525 -38.7625 235.505 -38.125 235.25 C-35.84998472 234.17603789 -35.84998472 234.17603789 -35 231.9375 C-34 230 -34 230 -31.875 229.25 C-31.25625 229.1675 -30.6375 229.085 -30 229 C-29.67 227.68 -29.34 226.36 -29 225 C-28.34 225 -27.68 225 -27 225 C-27 224.34 -27 223.68 -27 223 C-26.01 223 -25.02 223 -24 223 C-24 222.34 -24 221.68 -24 221 C-22.68 221 -21.36 221 -20 221 C-19.74476563 220.43410156 -19.48953125 219.86820313 -19.2265625 219.28515625 C-17.85154982 216.72342881 -16.22781798 214.67785958 -14.375 212.4375 C-5.02446653 201.16967443 -5.02446653 201.16967443 1 188 C1.66 188 2.32 188 3 188 C3.37125 186.7934375 3.37125 186.7934375 3.75 185.5625 C5.55229409 180.42596184 7.52233637 175.30076539 10.47265625 170.70703125 C12.35838106 167.36481311 13.42565992 163.91006179 14.5 160.25 C14.93123333 158.81088036 15.36351681 157.37207496 15.796875 155.93359375 C16.00248047 155.24894043 16.20808594 154.56428711 16.41992188 153.85888672 C17.11154461 151.64255022 17.92564918 149.48248231 18.75 147.3125 C20.30850522 142.73275839 20.48030872 138.15153216 20.75 133.34765625 C20.99647924 130.0471452 21.475744 126.88068087 22.0625 123.625 C22.8332029 119.30335486 23.18636998 115.3796945 23 111 C23 108.02140989 23.0349436 105.04478076 23.0703125 102.06640625 C23.2312697 84.82495384 23.2312697 84.82495384 22.1875 67.625 C22.11740723 66.84326416 22.04731445 66.06152832 21.97509766 65.25610352 C21.43423348 60.35431952 20.01252106 56.53722614 18 52 C17.4353216 49.53476052 16.93552419 47.05380208 16.5 44.5625 C15.48536402 39.10107677 14.19238182 34.10129819 12 29 C11.72542969 28.27167969 11.45085937 27.54335937 11.16796875 26.79296875 C8.72403129 20.35553349 5.67509883 14.29306907 2.48828125 8.19921875 C1.17655781 5.37952978 0.4304483 3.05905259 0 0 Z " fill="#4CCDD4" transform="translate(403,139)"/>
<path d="M0 0 C0.96084503 0.00007553 1.92169006 0.00015106 2.91165161 0.00022888 C3.95127045 0.00539017 4.99088928 0.01055145 6.06201172 0.01586914 C7.12459198 0.01728409 8.18717224 0.01869904 9.2819519 0.02015686 C12.68522931 0.02576705 16.0884416 0.0383213 19.49169922 0.05102539 C21.79508369 0.05603908 24.09846918 0.06060221 26.40185547 0.06469727 C32.05682571 0.0757398 37.71175781 0.09248788 43.36669922 0.11352539 C43.36669922 0.44352539 43.36669922 0.77352539 43.36669922 1.11352539 C42.80959763 1.12383286 42.25249603 1.13414032 41.67851257 1.14476013 C35.8873623 1.25282559 30.0963676 1.36742366 24.30541992 1.48583984 C22.14334362 1.52918852 19.98123309 1.57086364 17.8190918 1.61083984 C14.7137622 1.66854383 11.60860486 1.73223811 8.50341797 1.79711914 C7.53458176 1.81383163 6.56574554 1.83054413 5.56755066 1.84776306 C4.21648979 1.87768089 4.21648979 1.87768089 2.83813477 1.90820312 C2.04537643 1.92374741 1.2526181 1.93929169 0.43583679 1.95530701 C-1.83069852 2.04433765 -1.83069852 2.04433765 -4.63330078 3.11352539 C-4.65662899 21.08921772 -4.67427957 39.06490614 -4.68511295 57.04061031 C-4.69027608 65.38645368 -4.69731909 73.73228766 -4.70874023 82.078125 C-4.71868657 89.34971309 -4.72515409 96.62129438 -4.72738928 103.89288908 C-4.72869647 107.7455206 -4.73178286 111.59813267 -4.73903084 115.45075798 C-4.74579026 119.07285211 -4.7479179 122.69491867 -4.74640846 126.31701851 C-4.74681715 128.28849767 -4.75221275 130.2599738 -4.75772095 132.23144531 C-4.75634628 133.39397324 -4.75497162 134.55650116 -4.7535553 135.7542572 C-4.75447709 136.77099486 -4.75539888 137.78773252 -4.75634861 138.83528042 C-4.88947412 141.07999955 -4.88947412 141.07999955 -3.63330078 142.11352539 C-3.5346804 143.93349045 -3.50697944 145.75732105 -3.50631714 147.57995605 C-3.50349731 148.76628128 -3.50067749 149.95260651 -3.49777222 151.17488098 C-3.49979645 152.48816879 -3.50182068 153.8014566 -3.50390625 155.15454102 C-3.50255223 156.54221137 -3.5007723 157.92988136 -3.49859619 159.31755066 C-3.4940219 163.0963726 -3.4958114 166.87516735 -3.49897528 170.65398979 C-3.5014989 174.60001578 -3.49916133 178.54603936 -3.49758911 182.49206543 C-3.49576742 189.1199587 -3.49817371 195.74784084 -3.50292969 202.37573242 C-3.50837231 210.04935742 -3.50660965 217.72295586 -3.50110328 225.39658022 C-3.49657213 231.97320932 -3.49592161 238.5498304 -3.49854195 245.12646055 C-3.50010472 249.05955663 -3.50029851 252.99264019 -3.49700546 256.92573547 C-3.49412672 260.62253888 -3.49610249 264.31930789 -3.50189972 268.01610756 C-3.50386294 270.02812782 -3.50087343 272.04015097 -3.49777222 274.0521698 C-3.50059204 275.23849503 -3.50341187 276.42482025 -3.50631714 277.64709473 C-3.50669416 278.6846566 -3.50707119 279.72221848 -3.50745964 280.79122162 C-3.63330078 283.11352539 -3.63330078 283.11352539 -4.63330078 284.11352539 C-4.70973596 286.89270858 -4.72393214 289.64730228 -4.69580078 292.42602539 C-4.69201416 293.26891113 -4.68822754 294.11179687 -4.68432617 294.98022461 C-4.66797345 298.5958447 -4.64011943 302.21135297 -4.61279297 305.8269043 C-4.59454244 308.46410586 -4.58254182 311.10128801 -4.57080078 313.73852539 C-4.56250244 314.54201416 -4.5542041 315.34550293 -4.5456543 316.17333984 C-4.52273475 321.56390623 -4.95534136 326.76458571 -5.63330078 332.11352539 C-5.96330078 332.11352539 -6.29330078 332.11352539 -6.63330078 332.11352539 C-6.63330078 222.88352539 -6.63330078 113.65352539 -6.63330078 1.11352539 C-4.21555497 -0.09534751 -2.69999014 -0.00706804 0 0 Z " fill="#016EB8" transform="translate(97.63330078125,83.886474609375)"/>
<path d="M0 0 C-9.25277909 9.25277909 -31.86954497 11.93310943 -44.5 14.4375 C-46.2183606 14.78893066 -46.2183606 14.78893066 -47.97143555 15.14746094 C-69.73536326 19.18948249 -92.07604687 19.29593984 -114.13671875 19.1953125 C-116.6091958 19.19156741 -119.08167436 19.18872755 -121.55415344 19.18673706 C-127.96044245 19.17921812 -134.36663605 19.15967544 -140.77288818 19.1373291 C-147.35053213 19.11661276 -153.92819198 19.10768108 -160.50585938 19.09765625 C-173.33727953 19.07641444 -186.16863461 19.042829 -199 19 C-199 18.67 -199 18.34 -199 18 C-198.31897217 17.98018066 -197.63794434 17.96036133 -196.9362793 17.93994141 C-193.85296083 17.84473017 -190.77032351 17.73503534 -187.6875 17.625 C-186.61564453 17.5940625 -185.54378906 17.563125 -184.43945312 17.53125 C-183.41142578 17.49257813 -182.38339844 17.45390625 -181.32421875 17.4140625 C-179.9024231 17.36693115 -179.9024231 17.36693115 -178.4519043 17.31884766 C-175.7469731 17.1510949 -175.7469731 17.1510949 -173 15 C-170.765625 14.55078125 -170.765625 14.55078125 -168.25 14.3125 C-167.43015625 14.22613281 -166.6103125 14.13976562 -165.765625 14.05078125 C-163 14 -163 14 -159.85546875 14.5078125 C-154.85893508 15.14566786 -150.07829856 14.86077373 -145.0625 14.5625 C-144.09248047 14.51029297 -143.12246094 14.45808594 -142.12304688 14.40429688 C-139.74829212 14.27561558 -137.37406771 14.14070204 -135 14 C-134.505 14.99 -134.505 14.99 -134 16 C-86.24017717 16.74277654 -86.24017717 16.74277654 -39.09375 9.8671875 C-34.75586142 8.87765941 -30.42644827 8.42696056 -26 8 C-26 7.34 -26 6.68 -26 6 C-24.98679687 5.73445313 -23.97359375 5.46890625 -22.9296875 5.1953125 C-21.57809823 4.83864311 -20.22653722 4.48186657 -18.875 4.125 C-17.87726563 3.86396484 -17.87726563 3.86396484 -16.859375 3.59765625 C-13.75823435 2.77676608 -10.72781269 1.90755903 -7.6875 0.875 C-4.95589378 -0.01436017 -2.85093177 -0.16770187 0 0 Z " fill="#3589BA" transform="translate(320,404)"/>
<path d="M0 0 C0.33 42.57 0.66 85.14 1 129 C3.64 126.36 6.28 123.72 9 121 C13.3125 118 13.3125 118 16 118 C15.75 121.375 15.75 121.375 15 125 C13.25 126 13.25 126 11 127 C10.19356223 128.16361437 9.42662926 129.35501161 8.6875 130.5625 C6.55152028 133.77981945 6.24267277 133.94032637 2.1875 134.9375 C0.6096875 134.9684375 0.6096875 134.9684375 -1 135 C-3.23601547 131.64597679 -3.24800236 130.58123517 -3.24050903 126.66596985 C-3.24325836 125.55959167 -3.24600769 124.4532135 -3.24884033 123.31330872 C-3.24164978 122.0991478 -3.23445923 120.88498688 -3.22705078 119.6340332 C-3.22734283 118.35587738 -3.22763489 117.07772156 -3.22793579 115.76083374 C-3.22851025 112.25486877 -3.21674096 108.7490403 -3.20278788 105.24310708 C-3.19029599 101.57957413 -3.18911124 97.91603814 -3.18673706 94.25248718 C-3.18051775 87.31456888 -3.16410085 80.3767135 -3.14403808 73.43882293 C-3.1216931 65.54048443 -3.11068918 57.64214296 -3.10064721 49.74378073 C-3.079735 33.49581696 -3.04455028 17.24791651 -3 1 C-1 0 -1 0 0 0 Z " fill="#5AB4E4" transform="translate(193,186)"/>
<path d="M0 0 C0.33 0 0.66 0 1 0 C1 110.22 1 220.44 1 334 C2.32 333.67 3.64 333.34 5 333 C4.505 334.98 4.505 334.98 4 337 C2.68 337.33 1.36 337.66 0 338 C0 226.46 0 114.92 0 0 Z " fill="#2B688E" transform="translate(89,84)"/>
<path d="M0 0 C2.08304538 -0.05418326 4.16649768 -0.09287551 6.25 -0.125 C7.99023438 -0.15980469 7.99023438 -0.15980469 9.765625 -0.1953125 C12.88667816 -0.00684311 14.35188172 0.48848979 17 2 C17.845625 2 18.69125 2 19.5625 2 C22 2 22 2 25 4 C26.1875 6.625 26.1875 6.625 27 9 C28.98 9 30.96 9 33 9 C33 9.66 33 10.32 33 11 C33.66 11 34.32 11 35 11 C35 11.66 35 12.32 35 13 C36.32 13.33 37.64 13.66 39 14 C39 14.66 39 15.32 39 16 C39.969375 16.2475 40.93875 16.495 41.9375 16.75 C42.948125 17.1625 43.95875 17.575 45 18 C45.6875 20.0625 45.6875 20.0625 46 22 C46.99 22.33 47.98 22.66 49 23 C49.6875 25.0625 49.6875 25.0625 50 27 C53.04913228 28.01111093 53.04913228 28.01111093 56 27 C56 27.66 56 28.32 56 29 C62.67593347 27.71616664 66.65105002 24.68694312 70.703125 19.42578125 C71.13109375 18.95527344 71.5590625 18.48476562 72 18 C72.66 18 73.32 18 74 18 C74 17.01 74 16.02 74 15 C75.64556566 13.96564444 77.3170608 12.97236487 79 12 C79.845625 11.13375 80.69125 10.2675 81.5625 9.375 C83.88362818 7.11338793 84.86111862 6.3487646 88 6 C88 5.34 88 4.68 88 4 C88.99 4.495 88.99 4.495 90 5 C90.33333333 6.33333333 90.66666667 7.66666667 91 9 C91.53625 9.804375 92.0725 10.60875 92.625 11.4375 C94 14 94 14 93.6875 16.8125 C93.460625 17.534375 93.23375 18.25625 93 19 C91.33333333 15.66666667 89.66666667 12.33333333 88 9 C84.31262152 11.04921991 81.46722854 13.28590181 78.49609375 16.2734375 C77.67302734 17.0984375 76.84996094 17.9234375 76.00195312 18.7734375 C75.15568359 19.63195312 74.30941406 20.49046875 73.4375 21.375 C72.58736328 22.22578125 71.73722656 23.0765625 70.86132812 23.953125 C66.17471804 28.64758733 66.17471804 28.64758733 61.91430664 33.72119141 C60 36 60 36 57 37 C53.91963383 33.98046692 51.00119482 30.89732203 48.15844727 27.64892578 C39.76585239 18.14655371 30.47914737 12.35475205 19 7 C17.845 6.443125 16.69 5.88625 15.5 5.3125 C10.44623424 3.41733784 5.25285943 2.21617928 0 1 C0 0.67 0 0.34 0 0 Z " fill="#2DBAD4" transform="translate(229,190)"/>
<path d="M0 0 C9.30935379 8.71623248 14.17303039 24.08510493 18 36 C18.22139648 36.68126953 18.44279297 37.36253906 18.67089844 38.06445312 C27.62662191 66.44397038 32.50665729 103.871519 24 133 C23.34 133.33 22.68 133.66 22 134 C21.01325678 130.17723255 21.0953475 127.46697678 21.9375 123.625 C22.81180616 119.27107266 23.18444765 115.42674357 23 111 C23 108.02140989 23.0349436 105.04478076 23.0703125 102.06640625 C23.2312697 84.82495384 23.2312697 84.82495384 22.1875 67.625 C22.11740723 66.84326416 22.04731445 66.06152832 21.97509766 65.25610352 C21.43423348 60.35431952 20.01252106 56.53722614 18 52 C17.4353216 49.53476052 16.93552419 47.05380208 16.5 44.5625 C15.48536402 39.10107677 14.19238182 34.10129819 12 29 C11.72542969 28.27167969 11.45085937 27.54335937 11.16796875 26.79296875 C8.72403129 20.35553349 5.67509883 14.29306907 2.48828125 8.19921875 C1.17655781 5.37952978 0.4304483 3.05905259 0 0 Z " fill="#42D0DB" transform="translate(403,139)"/>
<path d="M0 0 C2.70953707 1.48914148 3.93225885 3.42733036 5.73779297 5.95507812 C6.34623047 6.75171875 6.95466797 7.54835937 7.58154297 8.36914062 C8.55607422 9.68011719 8.55607422 9.68011719 9.55029297 11.01757812 C10.17548828 11.85417969 10.80068359 12.69078125 11.44482422 13.55273438 C12.73779297 15.95507812 12.73779297 15.95507812 12.43701172 18.26367188 C12.20626953 18.82183594 11.97552734 19.38 11.73779297 19.95507812 C10.87154297 19.15070313 10.00529297 18.34632813 9.11279297 17.51757812 C6.10903203 14.98583677 3.70576035 14.23850437 -0.26220703 13.95507812 C0.26047763 11.19231635 0.84648883 8.62899053 1.73779297 5.95507812 C-2.30843205 5.58527799 -2.30843205 5.58527799 -5.26220703 7.95507812 C-6.45453316 10.00511767 -6.45453316 10.00511767 -7.26220703 11.95507812 C-7.92220703 11.95507812 -8.58220703 11.95507812 -9.26220703 11.95507812 C-9.26220703 12.61507812 -9.26220703 13.27507812 -9.26220703 13.95507812 C-10.25220703 14.45007813 -10.25220703 14.45007813 -11.26220703 14.95507812 C-11.50970703 15.69757813 -11.75720703 16.44007813 -12.01220703 17.20507812 C-13.39371371 20.24439282 -15.06817176 21.6224446 -17.68798828 23.62695312 C-19.32236681 25.00583327 -20.48205753 26.43571213 -21.76220703 28.14257812 C-24.50366178 31.22671472 -26.30013724 32.03366655 -30.26220703 32.95507812 C-29.01673441 26.93355475 -26.86489369 23.81313922 -22.52001953 19.54882812 C-21.95523895 18.97926392 -21.39045837 18.40969971 -20.80856323 17.82287598 C-19.61939672 16.63032457 -18.42396265 15.44399335 -17.22265625 14.26367188 C-15.38192823 12.44987656 -13.56958554 10.61072581 -11.75830078 8.76757812 C-10.59714147 7.60972023 -9.43443347 6.45341291 -8.27001953 5.29882812 C-7.72822052 4.74690796 -7.18642151 4.19498779 -6.62820435 3.62634277 C-2.82914153 -0.0561798 -2.82914153 -0.0561798 0 0 Z " fill="#18A5C3" transform="translate(390.26220703125,121.044921875)"/>
<path d="M0 0 C0.99 0 1.98 0 3 0 C2.58697825 4.81858709 0.4612792 6.94544186 -3 10 C-3.63035156 10.598125 -4.26070313 11.19625 -4.91015625 11.8125 C-10.81096498 17.29564713 -17.21177432 21.68780746 -24 26 C-25.13695312 26.72896484 -25.13695312 26.72896484 -26.296875 27.47265625 C-30.46146419 30.11184359 -34.70517726 32.57928173 -39 35 C-39.91652344 35.58007812 -39.91652344 35.58007812 -40.8515625 36.171875 C-45.48817644 39.05249472 -45.48817644 39.05249472 -48.4375 38.75 C-48.953125 38.5025 -49.46875 38.255 -50 38 C-48.95831408 34.97911083 -48.09412504 34.05691281 -45.3125 32.375 C-41.9151347 30.96477289 -38.55415442 29.93883324 -35 29 C-34.01 28.67 -33.02 28.34 -32 28 C-31.6596875 27.071875 -31.6596875 27.071875 -31.3125 26.125 C-29.22158115 22.73970282 -25.72368179 22.02401249 -22 21 C-21.34 21 -20.68 21 -20 21 C-20 20.34 -20 19.68 -20 19 C-15.61538462 16 -15.61538462 16 -13 16 C-13 15.01 -13 14.02 -13 13 C-12.38125 12.7525 -11.7625 12.505 -11.125 12.25 C-8.84998472 11.17603789 -8.84998472 11.17603789 -8 8.9375 C-7 7 -7 7 -4.875 6.25 C-4.25625 6.1675 -3.6375 6.085 -3 6 C-2.67 4.68 -2.34 3.36 -2 2 C-1.34 2 -0.68 2 0 2 C0 1.34 0 0.68 0 0 Z " fill="#26BBD4" transform="translate(376,362)"/>
<path d="M0 0 C1.32 0.33 2.64 0.66 4 1 C4.76246061 3.37209967 5.13734824 4.6004415 4.3125 7 C4.209375 7.66 4.10625 8.32 4 9 C5.85432087 11.27144074 5.85432087 11.27144074 8 13 C6 16 6 16 4 17 C4 21.29 4 25.58 4 30 C5.258125 29.814375 6.51625 29.62875 7.8125 29.4375 C11.32617949 29.04497103 14.51939118 29.05234564 18.03125 29.4375 C24.24464843 30.05554846 30.44934544 30.32947647 36.6875 30.5625 C37.78255859 30.60568359 38.87761719 30.64886719 40.00585938 30.69335938 C42.67048597 30.79808269 45.33518311 30.90025779 48 31 C48 31.33 48 31.66 48 32 C32.16 32 16.32 32 0 32 C0 21.44 0 10.88 0 0 Z " fill="#06478D" transform="translate(120,390)"/>
<path d="M0 0 C-9.5141428 9.5141428 -32.19554495 11.98433074 -45.375 14.5 C-46.63787842 14.74266602 -47.90075684 14.98533203 -49.2019043 15.23535156 C-59.69637479 17.14003454 -70.14526896 18.17024981 -80.8125 18.0625 C-81.99457031 18.05347656 -83.17664063 18.04445313 -84.39453125 18.03515625 C-85.25433594 18.02355469 -86.11414063 18.01195312 -87 18 C-87 17.67 -87 17.34 -87 17 C-83.04 17 -79.08 17 -75 17 C-75 16.34 -75 15.68 -75 15 C-73.87525269 14.88724731 -73.87525269 14.88724731 -72.7277832 14.7722168 C-69.25509756 14.41915731 -65.78385686 14.05338502 -62.3125 13.6875 C-61.13365234 13.56955078 -59.95480469 13.45160156 -58.74023438 13.33007812 C-51.62788717 12.5701287 -44.79837576 11.40761853 -37.859375 9.6640625 C-33.91440512 8.74788097 -30.03189182 8.34168575 -26 8 C-26 7.34 -26 6.68 -26 6 C-24.98679687 5.73445313 -23.97359375 5.46890625 -22.9296875 5.1953125 C-21.57809823 4.83864311 -20.22653722 4.48186657 -18.875 4.125 C-18.20984375 3.95097656 -17.5446875 3.77695312 -16.859375 3.59765625 C-13.75823435 2.77676608 -10.72781269 1.90755903 -7.6875 0.875 C-4.95589378 -0.01436017 -2.85093177 -0.16770187 0 0 Z " fill="#3CA9C6" transform="translate(320,404)"/>
<path d="M0 0 C0.66 0.33 1.32 0.66 2 1 C0.35 2.32 -1.3 3.64 -3 5 C-2.625 3.0625 -2.625 3.0625 -2 1 C-1.34 0.67 -0.68 0.34 0 0 Z M-5 5 C-4.34 5.33 -3.68 5.66 -3 6 C-12.80102539 15.80102539 -22.60205078 25.60205078 -32.40307617 35.40307617 C-33.02282822 36.02324615 -33.64258026 36.64341614 -34.28111267 37.28237915 C-35.79668726 38.79683706 -37.31647731 40.3070739 -38.83691406 41.81665039 C-42.00946892 45.01892557 -44.89101117 48.46329905 -47.81640625 51.890625 C-49.99103626 53.99134093 -51.0515569 54.65233777 -54 55 C-53.44291667 51.38288149 -52.27138983 50.05853793 -49.4375 47.8125 C-45.38577209 44.4543111 -42.03970939 40.75056957 -38.6640625 36.72265625 C-38.11492187 36.15417969 -37.56578125 35.58570313 -37 35 C-36.34 35 -35.68 35 -35 35 C-34.34 33.68 -33.68 32.36 -33 31 C-32.34 31 -31.68 31 -31 31 C-31 30.34 -31 29.68 -31 29 C-29.1875 26.875 -29.1875 26.875 -27 25 C-26.01 25 -25.02 25 -24 25 C-24 24.01 -24 23.02 -24 22 C-22.390625 20.60546875 -22.390625 20.60546875 -20.25 19.1875 C-16.41512359 16.48411539 -14.44430704 13.94849599 -12 10 C-11.34 10 -10.68 10 -10 10 C-9.67 9.01 -9.34 8.02 -9 7 C-7.0625 5.75 -7.0625 5.75 -5 5 Z " fill="#036ECA" transform="translate(176,335)"/>
<path d="M0 0 C16.62275116 1.43299579 32.30795642 6.45255178 47.875 12.1875 C48.55933105 12.43733643 49.24366211 12.68717285 49.94873047 12.94458008 C52.80473614 14.0214883 54.8163139 14.8163139 57 17 C49.34327393 19.55224202 40.88196932 15.33809808 34 12 C24.81481802 7.63636516 15.96952196 5.55615635 6 4 C6 3.34 6 2.68 6 2 C3.03 1.505 3.03 1.505 0 1 C0 0.67 0 0.34 0 0 Z " fill="#17BADD" transform="translate(239,87)"/>
<path d="M0 0 C0.66 0 1.32 0 2 0 C2 0.66 2 1.32 2 2 C2.66 2 3.32 2 4 2 C4.33 5.3 4.66 8.6 5 12 C5.33 12 5.66 12 6 12 C7.57885218 52.5449241 7.57885218 52.5449241 -2 65 C-2.66 65 -3.32 65 -4 65 C-3.81824219 64.44054687 -3.63648438 63.88109375 -3.44921875 63.3046875 C2.55715991 44.14587966 3.80816669 26.70029564 1 7 C0.90299805 6.31309082 0.80599609 5.62618164 0.70605469 4.91845703 C0.47314472 3.27862271 0.2369489 1.63925558 0 0 Z " fill="#1DA1CD" transform="translate(322,210)"/>
<path d="M0 0 C0.99 0.33 1.98 0.66 3 1 C2.55084229 1.42821045 2.10168457 1.8564209 1.63891602 2.29760742 C-0.39707392 4.25026971 -2.41726406 6.21854838 -4.4375 8.1875 C-5.14455078 8.86103516 -5.85160156 9.53457031 -6.58007812 10.22851562 C-7.59038086 11.21948242 -7.59038086 11.21948242 -8.62109375 12.23046875 C-9.2442749 12.83270264 -9.86745605 13.43493652 -10.50952148 14.05541992 C-12.29353877 16.38297073 -12.70066929 18.1035091 -13 21 C-12.06757292 23.75391254 -10.68668971 25.56367042 -9 28 C-8.01 28.33 -7.02 28.66 -6 29 C-6.144375 30.258125 -6.28875 31.51625 -6.4375 32.8125 C-7.28549324 41.1834047 -7.59458899 49.5985038 -8 58 C-8.33 58 -8.66 58 -9 58 C-9 50.74 -9 43.48 -9 36 C-9.66 36 -10.32 36 -11 36 C-11 35.34 -11 34.68 -11 34 C-11.66 34 -12.32 34 -13 34 C-12.9175 33.13375 -12.835 32.2675 -12.75 31.375 C-13.05777629 27.22002008 -14.68708048 25.39710054 -17 22 C-17.47108549 18.8095542 -17.36543491 17.49835672 -15.43945312 14.87182617 C-14.37114258 13.84279175 -14.37114258 13.84279175 -13.28125 12.79296875 C-12.51425781 12.04208984 -11.74726563 11.29121094 -10.95703125 10.51757812 C-9.74080078 9.36418945 -9.74080078 9.36418945 -8.5 8.1875 C-7.68917969 7.39923828 -6.87835938 6.61097656 -6.04296875 5.79882812 C-4.03940041 3.85418827 -2.02511598 1.92214935 0 0 Z " fill="#0694DA" transform="translate(335,176)"/>
<path d="M0 0 C11.0230114 -0.04649214 22.04599918 -0.08195461 33.06908894 -0.10362434 C38.1884287 -0.11402859 43.307701 -0.128126 48.42700195 -0.15087891 C53.37424056 -0.17272762 58.32141458 -0.18459385 63.26869774 -0.18975449 C65.14918216 -0.19342875 67.02966334 -0.20060325 68.91012001 -0.21146011 C87.81812991 -0.316211 87.81812991 -0.316211 97 2 C97 2.33 97 2.66 97 3 C92.4467813 3.02489563 87.89360307 3.04295187 83.34033203 3.05493164 C81.79442656 3.05993092 80.24852575 3.06673253 78.70263672 3.07543945 C76.46841272 3.08769956 74.23425174 3.09327249 72 3.09765625 C71.31945557 3.10281754 70.63891113 3.10797882 69.93774414 3.11329651 C65.98776485 3.11374849 62.21248557 2.75894446 58.30493164 2.22584534 C53.21242394 1.72686346 48.08030246 1.88005475 42.96875 1.90234375 C41.73709106 1.9037587 40.50543213 1.90517365 39.2364502 1.90663147 C35.32427484 1.91220388 31.41215789 1.92475133 27.5 1.9375 C24.8385425 1.94308518 22.17708556 1.94708084 19.515625 1.95117188 C13.01039693 1.96216428 6.50520264 1.97887486 0 2 C0 1.34 0 0.68 0 0 Z " fill="#0689CF" transform="translate(141,84)"/>
<path d="M0 0 C1.25068767 2.50137534 1.12936497 4.21918244 1.1328125 7.015625 C1.13474609 8.52189453 1.13474609 8.52189453 1.13671875 10.05859375 C1.13285156 11.11175781 1.12898438 12.16492188 1.125 13.25 C1.13080078 14.80654297 1.13080078 14.80654297 1.13671875 16.39453125 C1.13036474 21.36972066 1.06165184 26.11303123 0 31 C-0.33 31 -0.66 31 -1 31 C-1.495 18.13 -1.495 18.13 -2 5 C-2.66 5 -3.32 5 -4 5 C-4.226875 5.886875 -4.45375 6.77375 -4.6875 7.6875 C-6.21780571 11.54970013 -7.79522737 13.3779133 -11 16 C-14.24790985 17.36412214 -16.48193227 18 -20 18 C-15 13 -10 8 -5 3 C-4.47253174 2.43128174 -3.94506348 1.86256348 -3.40161133 1.27661133 C-2 0 -2 0 0 0 Z " fill="#2A8FC7" transform="translate(223,288)"/>
<path d="M0 0 C-0.19921875 1.8671875 -0.19921875 1.8671875 -1 4 C-6.99724561 7.44307159 -14.11382393 8.51818378 -20.87109375 9.49609375 C-25.34025825 10.21584683 -29.70069611 11.31541588 -34.08984375 12.4140625 C-36.82173209 12.96410713 -39.22414277 13.11246567 -42 13 C-42 12.34 -42 11.68 -42 11 C-45.3 11 -48.6 11 -52 11 C-52 10.67 -52 10.34 -52 10 C-51.43716309 9.95512451 -50.87432617 9.91024902 -50.29443359 9.86401367 C-33.95262081 8.52689571 -15.40103023 0 0 0 Z " fill="#36AAD0" transform="translate(282,308)"/>
<path d="M0 0 C0.33 0 0.66 0 1 0 C1 2.97 1 5.94 1 9 C0.01 8.67 -0.98 8.34 -2 8 C-2.26425781 8.56847656 -2.52851563 9.13695312 -2.80078125 9.72265625 C-6.50107803 16.74960421 -11.47311896 21.64874597 -18 26 C-18.66 26.99 -19.32 27.98 -20 29 C-24.79371942 31.86664421 -29.35558086 33.57891478 -35 33 C-32.43207046 31.28804697 -29.84091519 29.69829995 -27.1875 28.125 C-25.85332031 27.320625 -25.85332031 27.320625 -24.4921875 26.5 C-22.60533409 25.36433901 -20.71070179 24.24158929 -18.8125 23.125 C-11.36240197 17.49603704 -3.91885983 8.48767691 0 0 Z " fill="#44B4D4" transform="translate(317,275)"/>
<path d="M0 0 C2.475 0.495 2.475 0.495 5 1 C4.42070895 4.57460144 3.13448621 6.23136626 0.578125 8.75 C-0.11796875 9.4409375 -0.8140625 10.131875 -1.53125 10.84375 C-2.2634375 11.5553125 -2.995625 12.266875 -3.75 13 C-4.46671875 13.7115625 -5.1834375 14.423125 -5.921875 15.15625 C-15.91254664 25 -15.91254664 25 -20 25 C-20 23.68 -20 22.36 -20 21 C-17.98828125 19.03515625 -17.98828125 19.03515625 -15.3125 17.0625 C-11.5933833 14.23513201 -8.21538943 11.40452998 -5 8 C-4.2575 7.319375 -3.515 6.63875 -2.75 5.9375 C-0.9148473 3.9057238 -0.38223286 2.67563 0 0 Z " fill="#01A9E2" transform="translate(355,151)"/>
<path d="M0 0 C0.99 0.33 1.98 0.66 3 1 C3.4375 3.125 3.4375 3.125 3 6 C1.40982861 7.67551957 -0.30941765 9.03224324 -2.1328125 10.44921875 C-3.92277104 11.93585795 -5.17917302 13.392002 -6.5625 15.25 C-9.26376214 18.29757779 -11.08703759 19.09000874 -15 20 C-13.77098284 13.56814351 -11.10194073 10.46118095 -6.375 6.0625 C-5.45847656 5.17981445 -5.45847656 5.17981445 -4.5234375 4.27929688 C-3.02681108 2.84113243 -1.51490886 1.41889351 0 0 Z " fill="#07A0D6" transform="translate(375,134)"/>
<path d="M0 0 C11.34608413 10.62319783 18.1608457 32.03308916 20 47 C18 46 18 46 17.03515625 43.234375 C16.55369141 41.50960937 16.55369141 41.50960937 16.0625 39.75 C14.83216976 35.34671282 13.41295179 31.86982835 11 28 C10.296875 26.03515625 10.296875 26.03515625 9.75 24.0625 C7.9994944 18.46276434 5.2471246 13.40593278 2.5234375 8.234375 C1.18606188 5.39502369 0.42929083 3.08625296 0 0 Z " fill="#4CC3D0" transform="translate(403,139)"/>
<path d="M0 0 C0.66 0.33 1.32 0.66 2 1 C1.01 1.33 0.02 1.66 -1 2 C-0.67 2.99 -0.34 3.98 0 5 C0.09222761 6.4834724 0.13067411 7.97069625 0.1328125 9.45703125 C0.13474609 10.75543945 0.13474609 10.75543945 0.13671875 12.08007812 C0.13285156 12.98177734 0.12898438 13.88347656 0.125 14.8125 C0.12886719 15.70259766 0.13273437 16.59269531 0.13671875 17.50976562 C0.1298836 22.12007427 -0.05549488 26.4648762 -1 31 C-1.33 31 -1.66 31 -2 31 C-2 23.08 -2 15.16 -2 7 C-2.99 7.99 -3.98 8.98 -5 10 C-5.66 10 -6.32 10 -7 10 C-7.226875 10.5775 -7.45375 11.155 -7.6875 11.75 C-9.33038023 14.5663661 -11.39533227 16.08077114 -14 18 C-13.3393278 14.82006128 -12.22937755 12.22962159 -10.6875 9.375 C-10.27886719 8.59898437 -9.87023437 7.82296875 -9.44921875 7.0234375 C-7.81153218 4.73685626 -6.55860673 4.07410817 -4 3 C-2.64886795 2.02418241 -1.31053056 1.02970259 0 0 Z " fill="#4D90BD" transform="translate(121,388)"/>
<path d="M0 0 C12.03438713 -0.56905158 12.03438713 -0.56905158 16 3 C16.33 3.99 16.66 4.98 17 6 C19.50447516 7.21869929 19.50447516 7.21869929 22 8 C22 8.66 22 9.32 22 10 C23.32 10.33 24.64 10.66 26 11 C26 11.66 26 12.32 26 13 C27.32 13 28.64 13 30 13 C30 13.99 30 14.98 30 16 C26 16 26 16 23 14 C23 13.34 23 12.68 23 12 C21.68 12 20.36 12 19 12 C18.34 12 17.68 12 17 12 C16.61908203 11.07380859 16.61908203 11.07380859 16.23046875 10.12890625 C14.80777408 7.66741864 13.86549526 7.0961285 11.3125 5.9375 C10.60738281 5.61136719 9.90226562 5.28523438 9.17578125 4.94921875 C8.45777344 4.63597656 7.73976563 4.32273437 7 4 C6.31292969 3.69707031 5.62585938 3.39414063 4.91796875 3.08203125 C3.28484062 2.3735663 1.64324029 1.68468345 0 1 C0 0.67 0 0.34 0 0 Z " fill="#2AC2DE" transform="translate(288,104)"/>
<path d="M0 0 C1.23556641 0.01740234 1.23556641 0.01740234 2.49609375 0.03515625 C3.32238281 0.04417969 4.14867187 0.05320312 5 0.0625 C5.63808594 0.07410156 6.27617187 0.08570313 6.93359375 0.09765625 C6.93359375 0.42765625 6.93359375 0.75765625 6.93359375 1.09765625 C6.37486572 1.20835449 5.8161377 1.31905273 5.24047852 1.43310547 C2.65880559 1.94523008 0.07744952 2.45893548 -2.50390625 2.97265625 C-3.82165039 3.23369141 -3.82165039 3.23369141 -5.16601562 3.5 C-10.15277229 4.49367107 -15.12233565 5.53628344 -20.07836914 6.67382812 C-26.40556422 8.02271805 -32.61395795 8.23208226 -39.06640625 8.09765625 C-36.79742206 5.82867206 -36.16585527 5.58704294 -33.06640625 5.09765625 C-31.33390625 5.15953125 -31.33390625 5.15953125 -29.56640625 5.22265625 C-23.89071371 5.31921813 -18.45705983 3.76229008 -13.06640625 2.09765625 C-12.73640625 1.76765625 -12.40640625 1.43765625 -12.06640625 1.09765625 C-9.73805397 1.02601464 -7.42611015 1.10120805 -5.09765625 1.16015625 C-2.61370095 1.08372686 -2.49293786 0.1178137 0 0 Z " fill="#06A2E2" transform="translate(287.06640625,410.90234375)"/>
<path d="M0 0 C0.33 0.99 0.66 1.98 1 3 C-0.48281788 5.41886523 -1.98688244 7.61845642 -3.6875 9.875 C-4.35942383 10.79345703 -4.35942383 10.79345703 -5.04492188 11.73046875 C-6.34663904 13.50019777 -7.66968818 15.25170655 -9 17 C-9.72832031 17.97195313 -10.45664062 18.94390625 -11.20703125 19.9453125 C-11.79871094 20.62335938 -12.39039063 21.30140625 -13 22 C-13.66 22 -14.32 22 -15 22 C-15.226875 22.556875 -15.45375 23.11375 -15.6875 23.6875 C-17.35896766 26.63246684 -19.55276352 28.68156544 -22 31 C-22 29.02 -22 27.04 -22 25 C-20.68 25 -19.36 25 -18 25 C-17.74476563 24.43410156 -17.48953125 23.86820312 -17.2265625 23.28515625 C-15.85154982 20.72342881 -14.22781798 18.67785958 -12.375 16.4375 C-8.03711064 11.1065041 -3.99592035 5.59003752 0 0 Z " fill="#3CC6D2" transform="translate(401,335)"/>
<path d="M0 0 C0.99 0 1.98 0 3 0 C2.56327054 4.94960059 0.20117399 7.34151544 -3 11 C-3.4434375 11.75925781 -3.886875 12.51851563 -4.34375 13.30078125 C-6.31971697 16.52104818 -8.6725125 19.32862048 -11.125 22.1875 C-14.39166486 25.86494841 -14.39166486 25.86494841 -17 30 C-17.99 30 -18.98 30 -20 30 C-20 28 -20 28 -18.625 26.375 C-17 25 -17 25 -15 25 C-15.103125 24.278125 -15.20625 23.55625 -15.3125 22.8125 C-14.8670035 18.8030315 -13.05765894 17.50172095 -10 15 C-7.6875 14.1875 -7.6875 14.1875 -6 14 C-6 12.35 -6 10.7 -6 9 C-5.38125 8.814375 -4.7625 8.62875 -4.125 8.4375 C-0.94397134 6.28562767 -0.80548053 3.62466237 0 0 Z " fill="#07D4EB" transform="translate(400,330)"/>
<path d="M0 0 C0.99 0.33 1.98 0.66 3 1 C5.39254576 1.22560676 7.78928123 1.40848595 10.1875 1.5625 C12.09595703 1.68818359 12.09595703 1.68818359 14.04296875 1.81640625 C15.01878906 1.87699219 15.99460938 1.93757813 17 2 C17 2.99 17 3.98 17 5 C13.07142246 6.85131483 10.01224888 7.22004943 5.6875 7.125 C4.61886719 7.10695313 3.55023438 7.08890625 2.44921875 7.0703125 C1.64097656 7.04710937 0.83273438 7.02390625 0 7 C-1.125 2.25 -1.125 2.25 0 0 Z " fill="#1391D2" transform="translate(223,317)"/>
<path d="M0 0 C-15.51 0 -31.02 0 -47 0 C-47 -0.33 -47 -0.66 -47 -1 C-8.72830301 -4.36415151 -8.72830301 -4.36415151 0 0 Z " fill="#0B8EDB" transform="translate(232,421)"/>
<path d="M0 0 C4.30487887 1.27880225 7.75285257 2.90920471 11.5 5.375 C12.45390625 5.99890625 13.4078125 6.6228125 14.390625 7.265625 C15.25171875 7.83796875 16.1128125 8.4103125 17 9 C18.0725 9.70125 19.145 10.4025 20.25 11.125 C23.53775458 13.36665085 26.77072284 15.67492044 30 18 C29.01 18.33 28.02 18.66 27 19 C26.34 18.67 25.68 18.34 25 18 C25 17.34 25 16.68 25 16 C24.37351562 15.82984375 23.74703125 15.6596875 23.1015625 15.484375 C22.28429687 15.24203125 21.46703125 14.9996875 20.625 14.75 C19.40683594 14.40195313 19.40683594 14.40195313 18.1640625 14.046875 C15.54214546 12.7785108 15.00617682 11.67576692 14 9 C12.68 9 11.36 9 10 9 C9.67 8.34 9.34 7.68 9 7 C8.01 6.67 7.02 6.34 6 6 C6 5.34 6 4.68 6 4 C4.35 3.67 2.7 3.34 1 3 C0.67 2.01 0.34 1.02 0 0 Z " fill="#41C3D3" transform="translate(304,108)"/>
<path d="M0 0 C0 0.33 0 0.66 0 1 C-4.5532187 1.02489563 -9.10639693 1.04295187 -13.65966797 1.05493164 C-15.20557344 1.05993092 -16.75147425 1.06673253 -18.29736328 1.07543945 C-20.53158728 1.08769956 -22.76574826 1.09327249 -25 1.09765625 C-25.68054443 1.10281754 -26.36108887 1.10797882 -27.06225586 1.11329651 C-31.79987721 1.11383862 -36.31976335 0.66044355 -41 0 C-41 -0.33 -41 -0.66 -41 -1 C-13.21551724 -3.02068966 -13.21551724 -3.02068966 0 0 Z " fill="#2AA6D4" transform="translate(238,86)"/>
<path d="M0 0 C0.99 0 1.98 0 3 0 C2.58181281 4.87885059 0.55070071 6.77959703 -3 10 C-3.66 10.763125 -4.32 11.52625 -5 12.3125 C-7 14 -7 14 -9.75 14.25 C-10.4925 14.1675 -11.235 14.085 -12 14 C-12.33 14.66 -12.66 15.32 -13 16 C-13 15.01 -13 14.02 -13 13 C-12.38125 12.7525 -11.7625 12.505 -11.125 12.25 C-8.84998472 11.17603789 -8.84998472 11.17603789 -8 8.9375 C-7 7 -7 7 -4.875 6.25 C-4.25625 6.1675 -3.6375 6.085 -3 6 C-2.67 4.68 -2.34 3.36 -2 2 C-1.34 2 -0.68 2 0 2 C0 1.34 0 0.68 0 0 Z " fill="#1BC5DD" transform="translate(376,362)"/>
<path d="M0 0 C5.29836826 4.37691291 10.00135598 9.07233316 14.66796875 14.12109375 C16.80293571 16.28803595 16.80293571 16.28803595 19.30078125 15.78515625 C20.14189453 15.39650391 20.14189453 15.39650391 21 15 C20.67 16.32 20.34 17.64 20 19 C17.03 18.67 14.06 18.34 11 18 C10.67 16.68 10.34 15.36 10 14 C9.01 13.34 8.02 12.68 7 12 C6.33333333 10.33333333 5.66666667 8.66666667 5 7 C4.01 6.34 3.02 5.68 2 5 C2 4.34 2 3.68 2 3 C1.34 3 0.68 3 0 3 C0 2.01 0 1.02 0 0 Z " fill="#38D0E0" transform="translate(341,133)"/>
<path d="M0 0 C2.08304538 -0.05418326 4.16649768 -0.09287551 6.25 -0.125 C7.99023438 -0.15980469 7.99023438 -0.15980469 9.765625 -0.1953125 C12.88667816 -0.00684311 14.35188172 0.48848979 17 2 C17.845625 2 18.69125 2 19.5625 2 C22 2 22 2 25 4 C25.33 4.66 25.66 5.32 26 6 C18.94048614 6.39792667 13.57452764 5.48667558 7 3 C4.67630573 2.2926023 2.34130552 1.64759514 0 1 C0 0.67 0 0.34 0 0 Z " fill="#28B0D7" transform="translate(229,190)"/>
<path d="M0 0 C0.66 0.66 1.32 1.32 2 2 C1.23538452 2.75676025 1.23538452 2.75676025 0.45532227 3.52880859 C-1.84488095 5.80827034 -4.14122877 8.09157761 -6.4375 10.375 C-7.23994141 11.1690625 -8.04238281 11.963125 -8.86914062 12.78125 C-9.63291016 13.54179687 -10.39667969 14.30234375 -11.18359375 15.0859375 C-11.89056396 15.7876709 -12.59753418 16.4894043 -13.32592773 17.21240234 C-15.07219984 18.90693091 -15.07219984 18.90693091 -16 21 C-17.64363134 21.72159424 -19.31050386 22.39351421 -21 23 C-21 21.35 -21 19.7 -21 18 C-19.7315625 17.7525 -19.7315625 17.7525 -18.4375 17.5 C-14.27821638 15.68503988 -12.46513773 13.39210077 -9.7109375 9.875 C-7.92720417 7.92022375 -6.42128712 7.0150374 -4 6 C-4 5.34 -4 4.68 -4 4 C-3.34 4 -2.68 4 -2 4 C-1.34 2.68 -0.68 1.36 0 0 Z " fill="#0ACBF6" transform="translate(333,175)"/>
<path d="M0 0 C0.66 0.33 1.32 0.66 2 1 C0.35 2.32 -1.3 3.64 -3 5 C-2.625 3.0625 -2.625 3.0625 -2 1 C-1.34 0.67 -0.68 0.34 0 0 Z M-5 5 C-4.34 5.33 -3.68 5.66 -3 6 C-5.55000905 8.63738416 -8.11703788 11.25755816 -10.6875 13.875 C-11.7693457 14.99455078 -11.7693457 14.99455078 -12.87304688 16.13671875 C-13.57880859 16.85214844 -14.28457031 17.56757813 -15.01171875 18.3046875 C-15.65584717 18.96452637 -16.29997559 19.62436523 -16.96362305 20.30419922 C-19.19953832 22.16616631 -21.26046651 23.06394072 -24 24 C-24 23.34 -24 22.68 -24 22 C-22.390625 20.703125 -22.390625 20.703125 -20.25 19.25 C-16.44350054 16.51954279 -14.44054255 13.94241489 -12 10 C-11.34 10 -10.68 10 -10 10 C-9.67 9.01 -9.34 8.02 -9 7 C-7.0625 5.75 -7.0625 5.75 -5 5 Z " fill="#0178D7" transform="translate(176,335)"/>
<path d="M0 0 C0 9.24 0 18.48 0 28 C-3 28 -3 28 -4.8125 26.3125 C-6 24 -6 24 -5.3125 21.3125 C-4 19 -4 19 -2 18 C-1.97300275 15.72923158 -1.95360547 13.45837179 -1.9375 11.1875 C-1.92589844 9.92292969 -1.91429687 8.65835937 -1.90234375 7.35546875 C-1.83840884 4.00394763 -1.83840884 4.00394763 -3 1 C-1 0 -1 0 0 0 Z " fill="#058AE7" transform="translate(222,292)"/>
<path d="M0 0 C0.66 0.33 1.32 0.66 2 1 C2.33333333 2.33333333 2.66666667 3.66666667 3 5 C3.53625 5.804375 4.0725 6.60875 4.625 7.4375 C6 10 6 10 5.6875 12.8125 C5.460625 13.534375 5.23375 14.25625 5 15 C3.33333333 11.66666667 1.66666667 8.33333333 0 5 C-3.03044006 6.64509603 -5.23161503 8.23161503 -7.6875 10.6875 C-8.450625 11.450625 -9.21375 12.21375 -10 13 C-10.66 13 -11.32 13 -12 13 C-12 10 -12 10 -10.390625 8.2109375 C-9.33101563 7.30214844 -9.33101563 7.30214844 -8.25 6.375 C-7.55390625 5.76398438 -6.8578125 5.15296875 -6.140625 4.5234375 C-4.02448762 3.01742732 -2.53648117 2.42274686 0 2 C0 1.34 0 0.68 0 0 Z " fill="#39B8CB" transform="translate(317,194)"/>
<path d="M0 0 C0.99 0.33 1.98 0.66 3 1 C3.6875 3.0625 3.6875 3.0625 4 5 C4.66 4.01 5.32 3.02 6 2 C6.86949317 3.07107117 7.72014205 4.15745944 8.5625 5.25 C9.27599609 6.15492188 9.27599609 6.15492188 10.00390625 7.078125 C11 9 11 9 10.65234375 11.234375 C10.43707031 11.81703125 10.22179687 12.3996875 10 13 C9.13375 12.195625 8.2675 11.39125 7.375 10.5625 C4.37123907 8.03075864 1.96796738 7.28342624 -2 7 C-1.125 2.25 -1.125 2.25 0 0 Z " fill="#0ABAE4" transform="translate(392,128)"/>
<path d="M0 0 C0.99 0.33 1.98 0.66 3 1 C2.33411865 1.65802612 2.33411865 1.65802612 1.65478516 2.3293457 C-0.35777029 4.32109614 -2.3664162 6.31674474 -4.375 8.3125 C-5.07367188 9.00279297 -5.77234375 9.69308594 -6.4921875 10.40429688 C-7.1625 11.07138672 -7.8328125 11.73847656 -8.5234375 12.42578125 C-9.14138184 13.03848877 -9.75932617 13.65119629 -10.39599609 14.2824707 C-12.19289347 16.11329165 -12.19289347 16.11329165 -14 19 C-14.99 18.67 -15.98 18.34 -17 18 C-11.72898586 11.58930713 -5.90871848 5.81409488 0 0 Z " fill="#0099DD" transform="translate(335,176)"/>
<path d="M0 0 C0.99 0.33 1.98 0.66 3 1 C1.4608199 4.66752005 -0.75485452 6.98580573 -3.5703125 9.765625 C-4.91416016 11.09980469 -4.91416016 11.09980469 -6.28515625 12.4609375 C-7.22230469 13.38132813 -8.15945313 14.30171875 -9.125 15.25 C-10.07988637 16.19484856 -11.03431859 17.14015633 -11.98828125 18.0859375 C-14.32109087 20.39518338 -16.65844086 22.69963203 -19 25 C-19.33 23.68 -19.66 22.36 -20 21 C-19.00419922 20.22076172 -19.00419922 20.22076172 -17.98828125 19.42578125 C-13.41494808 15.81384951 -9.00957915 12.24543675 -5 8 C-4.2575 7.319375 -3.515 6.63875 -2.75 5.9375 C-0.9148473 3.9057238 -0.38223286 2.67563 0 0 Z " fill="#07D4FA" transform="translate(355,151)"/>
<path d="M0 0 C0 0.33 0 0.66 0 1 C-2.06081361 1.50690584 -4.12373526 2.00524619 -6.1875 2.5 C-7.33605469 2.7784375 -8.48460937 3.056875 -9.66796875 3.34375 C-12.56818829 3.91495385 -15.06096385 4.13283779 -18 4 C-18 3.34 -18 2.68 -18 2 C-21.3 2 -24.6 2 -28 2 C-28 1.67 -28 1.34 -28 1 C-24.64721411 0.63187393 -21.29268173 0.28305028 -17.9375 -0.0625 C-16.99455078 -0.16626953 -16.05160156 -0.27003906 -15.08007812 -0.37695312 C-9.81018133 -0.90945141 -5.20275263 -1.0318913 0 0 Z " fill="#46AED6" transform="translate(258,317)"/>
<path d="M0 0 C-1.21813269 3.65439808 -3.29456487 5.41276349 -6 8 C-7.4401645 9.43483055 -8.8775465 10.87245801 -10.3125 12.3125 C-11.54166667 13.54166667 -12.77083333 14.77083333 -14 16 C-14.99 15.67 -15.98 15.34 -17 15 C-15.88318655 11.64955966 -14.9563104 10.85083657 -12.3125 8.625 C-11.59449219 8.01785156 -10.87648437 7.41070312 -10.13671875 6.78515625 C-9.43160156 6.19605469 -8.72648438 5.60695313 -8 5 C-7.40832031 4.48308594 -6.81664062 3.96617187 -6.20703125 3.43359375 C-2.24519231 0 -2.24519231 0 0 0 Z " fill="#0167C3" transform="translate(139,374)"/>
<path d="M0 0 C1.32 0 2.64 0 4 0 C4.02918874 3.70831663 4.04686218 7.41660342 4.0625 11.125 C4.07087891 12.17171875 4.07925781 13.2184375 4.08789062 14.296875 C4.10375207 19.3090905 4.08177213 24.07665912 3 29 C2.67 29 2.34 29 2 29 C1.97494385 28.19256348 1.9498877 27.38512695 1.92407227 26.55322266 C1.80834513 22.91031083 1.68551365 19.26767274 1.5625 15.625 C1.52318359 14.35398437 1.48386719 13.08296875 1.44335938 11.7734375 C1.40146484 10.56171875 1.35957031 9.35 1.31640625 8.1015625 C1.27974854 6.98088379 1.24309082 5.86020508 1.20532227 4.70556641 C1.17403987 2.03287229 1.17403987 2.03287229 0 0 Z " fill="#3087B2" transform="translate(220,290)"/>
<path d="M0 0 C-0.33 2.31 -0.66 4.62 -1 7 C-5.75 9 -5.75 9 -8 9 C-9.66965451 9.31802943 -11.33678518 9.64984951 -13 10 C-5.02739726 0 -5.02739726 0 0 0 Z " fill="#0479CD" transform="translate(209,304)"/>
<path d="M0 0 C0.33 0.99 0.66 1.98 1 3 C1.66 3 2.32 3 3 3 C2.68903707 8.90829559 1.49254512 14.24806544 -0.3125 19.875 C-0.51319092 20.52927979 -0.71388184 21.18355957 -0.9206543 21.85766602 C-2.21877589 25.73995993 -3.41621452 27.93683992 -7 30 C-6.32682161 26.98443557 -5.3325519 24.27852327 -4.125 21.4375 C0.32200889 10.99005366 0.32200889 10.99005366 0 0 Z " fill="#08DCEA" transform="translate(418,283)"/>
<path d="M0 0 C-0.639375 0.309375 -1.27875 0.61875 -1.9375 0.9375 C-3.93610821 1.8345163 -3.93610821 1.8345163 -5 3 C-13.95602414 4.15699833 -22.98701873 4.12161444 -32 4 C-32 3.67 -32 3.34 -32 3 C-28.04 3 -24.08 3 -20 3 C-20 2.34 -20 1.68 -20 1 C-13.31184516 0.37577221 -6.71884955 -0.12920865 0 0 Z " fill="#2C9CC4" transform="translate(265,418)"/>
<path d="M0 0 C0.33 0 0.66 0 1 0 C2.88394207 7.53576827 1.05433167 15.0318962 -2.484375 21.8671875 C-2.98453125 22.57101562 -3.4846875 23.27484375 -4 24 C-4.66 24 -5.32 24 -6 24 C-5.81824219 23.44054687 -5.63648438 22.88109375 -5.44921875 22.3046875 C-3.14822508 14.96510769 -1.53065243 7.53384953 0 0 Z " fill="#38A9C5" transform="translate(324,251)"/>
<path d="M0 0 C-0.99 0.495 -0.99 0.495 -2 1 C-2 1.99 -2 2.98 -2 4 C-8.4 8.06153846 -8.4 8.06153846 -11.4375 7.75 C-11.953125 7.5025 -12.46875 7.255 -13 7 C-11.93262982 3.90462649 -11.02481433 3.01544003 -8.1875 1.25 C-5.13441107 0.05271022 -3.22691821 -0.28472808 0 0 Z " fill="#09B8DF" transform="translate(339,393)"/>
<path d="M0 0 C0.66 0 1.32 0 2 0 C2.33 0.99 2.66 1.98 3 3 C-2 8 -7 13 -12 18 C-11.51081032 13.62022365 -10.20875769 11.77487093 -7 8.8125 C-4.10148878 6.2043457 -4.10148878 6.2043457 -2 3 C-1.34 3 -0.68 3 0 3 C0 2.01 0 1.02 0 0 Z " fill="#36BDD1" transform="translate(303,205)"/>
<path d="M0 0 C2.76276177 0.52268466 5.3260876 1.10869587 8 2 C8 2.66 8 3.32 8 4 C9.32 4.33 10.64 4.66 12 5 C12 5.66 12 6.32 12 7 C13.32 7 14.64 7 16 7 C16 7.99 16 8.98 16 10 C12 10 12 10 9 8 C9 7.34 9 6.68 9 6 C7.68 6 6.36 6 5 6 C4.34 6 3.68 6 3 6 C2 4 1 2 0 0 Z " fill="#08CCEA" transform="translate(302,110)"/>
<path d="M0 0 C0.33 0 0.66 0 1 0 C1 2.97 1 5.94 1 9 C0.01 8.67 -0.98 8.34 -2 8 C-2.20625 8.5775 -2.4125 9.155 -2.625 9.75 C-4.49750888 12.81410544 -6.96958519 14.15539968 -10 16 C-8.46891253 12.69162003 -6.55556247 9.83763435 -4.4375 6.875 C-2.03268334 3.54908252 -2.03268334 3.54908252 0 0 Z " fill="#5ABED5" transform="translate(317,275)"/>
<path d="M0 0 C0.99 0 1.98 0 3 0 C6.4753869 5.97332123 7.57374185 10.11509775 7 17 C6.67 16.34 6.34 15.68 6 15 C5.34 15 4.68 15 4 15 C4.0825 14.13375 4.165 13.2675 4.25 12.375 C3.94275827 8.22723662 2.37605465 6.34132686 0 3 C0 2.01 0 1.02 0 0 Z " fill="#067EC1" transform="translate(318,195)"/>
<path d="M0 0 C0.8125 1.6875 0.8125 1.6875 1 4 C-1.125 6.75 -1.125 6.75 -4 9 C-6.8125 9.3125 -6.8125 9.3125 -9 9 C-7.42687504 5.06718759 -6.5260303 3.30942959 -2.8125 1.125 C-1.884375 0.75375 -0.95625 0.3825 0 0 Z " fill="#0474C7" transform="translate(202,311)"/>
<path d="M0 0 C0 5.26666667 0 5.26666667 -1 8 C-3.25587711 9.84993521 -5.28093271 10.78110777 -8 12 C-8.99 11.67 -9.98 11.34 -11 11 C-7.37 7.37 -3.74 3.74 0 0 Z " fill="#3EABD3" transform="translate(375,134)"/>
<path d="M0 0 C0.66 0 1.32 0 2 0 C2 0.66 2 1.32 2 2 C2.66 2 3.32 2 4 2 C4 9.26 4 16.52 4 24 C3.67 24 3.34 24 3 24 C2.86722656 22.85402344 2.73445313 21.70804688 2.59765625 20.52734375 C2.41931812 18.99739032 2.24093004 17.46744271 2.0625 15.9375 C1.97548828 15.18533203 1.88847656 14.43316406 1.79882812 13.65820312 C1.26536361 9.09411781 0.67013702 4.54606466 0 0 Z " fill="#45A2C6" transform="translate(322,210)"/>
<path d="M0 0 C7.00897689 1.72931766 13.50288191 3.83967342 20 7 C19.01 7.66 18.02 8.32 17 9 C14.1524013 8.24451463 11.63227284 7.31613642 9 6 C9 5.34 9 4.68 9 4 C8.071875 3.896875 7.14375 3.79375 6.1875 3.6875 C2.85034764 2.96772204 2.16813468 2.42857128 0 0 Z " fill="#44BBD2" transform="translate(276,96)"/>
<path d="M0 0 C3.72943822 0.13935544 7.45847096 0.28762301 11.1875 0.4375 C12.24259766 0.47681641 13.29769531 0.51613281 14.38476562 0.55664062 C15.40634766 0.59853516 16.42792969 0.64042969 17.48046875 0.68359375 C18.88655396 0.73858032 18.88655396 0.73858032 20.32104492 0.79467773 C22.95114982 0.99625599 25.42766414 1.42678321 28 2 C28 2.33 28 2.66 28 3 C27.18015625 2.98839844 26.3603125 2.97679688 25.515625 2.96484375 C24.43796875 2.95582031 23.3603125 2.94679688 22.25 2.9375 C21.18265625 2.92589844 20.1153125 2.91429688 19.015625 2.90234375 C16.13454233 2.86813895 16.13454233 2.86813895 14 3.59375 C11.01124262 4.20084134 8.66688131 3.35513079 5.75 2.5625 C4.13351563 2.13130859 4.13351563 2.13130859 2.484375 1.69140625 C1.25460938 1.34916016 1.25460938 1.34916016 0 1 C0 0.67 0 0.34 0 0 Z " fill="#05A8E6" transform="translate(210,86)"/>
<path d="M0 0 C7.8246759 0.67454103 15.34556614 2.26876958 23 4 C23 4.33 23 4.66 23 5 C17.39 4.67 11.78 4.34 6 4 C6 3.34 6 2.68 6 2 C3.03 1.505 3.03 1.505 0 1 C0 0.67 0 0.34 0 0 Z " fill="#41B6CF" transform="translate(239,87)"/>
<path d="M0 0 C2.37487575 2.13011139 3.53695532 3.86282876 4.5625 6.875 C5.3864636 9.25097968 6.22644749 11.50950686 7.25 13.8125 C8 16 8 16 7 19 C3.24147526 12.61050794 0.87952876 7.47599444 0 0 Z " fill="#09DBEA" transform="translate(408,152)"/>
<path d="M0 0 C0.66 0.33 1.32 0.66 2 1 C-1.63 4.63 -5.26 8.26 -9 12 C-9.33 10.68 -9.66 9.36 -10 8 C-8.89764064 7.03958829 -7.79303376 6.08175593 -6.6875 5.125 C-5.76517578 4.32449219 -5.76517578 4.32449219 -4.82421875 3.5078125 C-3 2 -3 2 0 0 Z " fill="#0182E2" transform="translate(188,323)"/>
<path d="M0 0 C7.58622438 0.59499799 10.88859125 3.69927982 16 9 C14.35 8.67 12.7 8.34 11 8 C11 7.34 11 6.68 11 6 C10.37351562 5.81824219 9.74703125 5.63648437 9.1015625 5.44921875 C8.28429687 5.19785156 7.46703125 4.94648437 6.625 4.6875 C5.81289063 4.44386719 5.00078125 4.20023437 4.1640625 3.94921875 C2 3 2 3 0 0 Z " fill="#41C3D7" transform="translate(318,118)"/>
<path d="M0 0 C2 1 2 1 3.125 4.1875 C3.91680237 7.63749602 4.1714979 10.484293 4 14 C3.34 14 2.68 14 2 14 C0.09391902 10.78817851 -0.22266247 8.46117397 -0.125 4.75 C-0.09792969 3.41195312 -0.09792969 3.41195312 -0.0703125 2.046875 C-0.04710937 1.37140625 -0.02390625 0.6959375 0 0 Z " fill="#0ADBEB" transform="translate(416,171)"/>
<path d="M0 0 C-2.62027436 2.62027436 -5.57923297 3.48198873 -9 4.6875 C-9.64195312 4.92533203 -10.28390625 5.16316406 -10.9453125 5.40820312 C-12.60910558 6.00166907 -14.30363299 6.50730517 -16 7 C-16.66 6.67 -17.32 6.34 -18 6 C-18 5.34 -18 4.68 -18 4 C-15.94037148 3.32451422 -13.87715678 2.65995688 -11.8125 2 C-10.66394531 1.62875 -9.51539063 1.2575 -8.33203125 0.875 C-5.35679188 0.09369447 -3.04716104 -0.18363306 0 0 Z " fill="#42B6CE" transform="translate(320,404)"/>
<path d="M0 0 C0 3.72207387 -1.17964568 5.46395589 -3 8.6875 C-3.8353125 10.17830078 -3.8353125 10.17830078 -4.6875 11.69921875 C-5.3371875 12.83810547 -5.3371875 12.83810547 -6 14 C-7.22419163 10.06204091 -6.48320272 7.83887763 -5 4 C-4.34 4 -3.68 4 -3 4 C-2.67 3.01 -2.34 2.02 -2 1 C-1.34 0.67 -0.68 0.34 0 0 Z " fill="#4DD1DB" transform="translate(409,323)"/>
<path d="M0 0 C3.82645947 2.67852163 4.46819646 5.34810616 5.25 9.75 C5.51536311 11.49773637 5.77032494 13.24721668 6 15 C2.23726917 12.54504757 2.23726917 12.54504757 1.171875 10.09765625 C1.03265625 9.42605469 0.8934375 8.75445312 0.75 8.0625 C0.60046875 7.39347656 0.4509375 6.72445312 0.296875 6.03515625 C0 4 0 4 0 0 Z " fill="#40D2DD" transform="translate(420,182)"/>
<path d="M0 0 C0.33 0 0.66 0 1 0 C0.91256669 1.91750286 0.8043811 3.83406665 0.6875 5.75 C0.62949219 6.81734375 0.57148438 7.8846875 0.51171875 8.984375 C-0.03090154 12.1821068 -0.85071145 13.62598691 -3 16 C-3.33 13.36 -3.66 10.72 -4 8 C-3.01 7.67 -2.02 7.34 -1 7 C-1.020625 6.030625 -1.04125 5.06125 -1.0625 4.0625 C-1 1 -1 1 0 0 Z " fill="#0AD8E6" transform="translate(424,270)"/>
<path d="M0 0 C0.99 0.33 1.98 0.66 3 1 C3.66 0.67 4.32 0.34 5 0 C5.33 1.65 5.66 3.3 6 5 C2.23375329 6.25541557 0.62811066 5.37061958 -3 4 C-2.67 3.01 -2.34 2.02 -2 1 C-1.34 0.67 -0.68 0.34 0 0 Z " fill="#04AEF1" transform="translate(233,184)"/>
<path d="M0 0 C0.99 0.99 1.98 1.98 3 3 C-2.61 3 -8.22 3 -14 3 C-9.35801341 -0.09465773 -5.59035842 -0.40657152 0 0 Z " fill="#066ABD" transform="translate(158,418)"/>
<path d="M0 0 C2.56491965 3.04764329 3.72655439 5.72457897 4.75 9.5625 C5.01296875 10.51253906 5.2759375 11.46257812 5.546875 12.44140625 C6 15 6 15 5 18 C2.33442742 11.94977014 0.48969295 6.61085476 0 0 Z " fill="#4DCAD1" transform="translate(417,168)"/>
<path d="M0 0 C3.6739599 3.37607126 6.05406554 6.39120786 8 11 C8 11.66 8 12.32 8 13 C6.68 12.67 5.36 12.34 4 12 C3.67 10.02 3.34 8.04 3 6 C2.01 5.67 1.02 5.34 0 5 C0 3.35 0 1.7 0 0 Z " fill="#0ACEEA" transform="translate(400,139)"/>
<path d="M0 0 C3.28212246 0.43761633 4.84832931 1.52557871 7 4 C6.67 4.66 6.34 5.32 6 6 C5.34 5.34 4.68 4.68 4 4 C1.42938689 3.35232207 1.42938689 3.35232207 -1 3 C-1.33 3.99 -1.66 4.98 -2 6 C-4.5625 7.1875 -4.5625 7.1875 -7 8 C-6.02133662 6.85373678 -5.04205413 5.70800212 -4.0625 4.5625 C-3.51722656 3.92441406 -2.97195313 3.28632812 -2.41015625 2.62890625 C-1.63204305 1.73008851 -0.84063472 0.84063472 0 0 Z " fill="#58B3C4" transform="translate(388,121)"/>
<path d="M0 0 C0.99 0.33 1.98 0.66 3 1 C0.03 3.97 -2.94 6.94 -6 10 C-6.66 9.34 -7.32 8.68 -8 8 C-5.33333333 5.33333333 -2.66666667 2.66666667 0 0 Z " fill="#3679A1" transform="translate(104,406)"/>
<path d="M0 0 C0 8.25 0 16.5 0 25 C-0.33 25 -0.66 25 -1 25 C-1.02505615 24.37955811 -1.0501123 23.75911621 -1.07592773 23.11987305 C-1.19196721 20.30887603 -1.31465759 17.49820759 -1.4375 14.6875 C-1.47681641 13.71103516 -1.51613281 12.73457031 -1.55664062 11.72851562 C-1.59853516 10.79072266 -1.64042969 9.85292969 -1.68359375 8.88671875 C-1.72025146 8.02264404 -1.75690918 7.15856934 -1.79467773 6.26831055 C-1.92747354 3.8352174 -1.92747354 3.8352174 -3 1 C-1 0 -1 0 0 0 Z " fill="#0580CA" transform="translate(222,292)"/>
<path d="M0 0 C2.22972273 0.11465421 4.45878753 0.24214766 6.6875 0.375 C7.92886719 0.44460937 9.17023438 0.51421875 10.44921875 0.5859375 C13.69317772 0.96422094 16.06567185 1.61979976 19 3 C19 3.33 19 3.66 19 4 C12.32508169 4.45510807 6.40625443 2.7672426 0 1 C0 0.67 0 0.34 0 0 Z " fill="#22AAC7" transform="translate(252,91)"/>
<path d="M0 0 C5.41798672 0.69165788 10.6822785 1.75799248 16 3 C15.34 3.66 14.68 4.32 14 5 C10.9609375 4.7578125 10.9609375 4.7578125 7.375 4.125 C6.18648437 3.92132813 4.99796875 3.71765625 3.7734375 3.5078125 C2.85820312 3.34023437 1.94296875 3.17265625 1 3 C0.67 2.01 0.34 1.02 0 0 Z " fill="#07B6EF" transform="translate(248,91)"/>
<path d="M0 0 C0 0.99 0 1.98 0 3 C-4.22949995 5.41685712 -7.12335991 6.34833144 -12 6 C-3 0 -3 0 0 0 Z " fill="#41B3D2" transform="translate(294,302)"/>
<path d="M0 0 C0.99 0.33 1.98 0.66 3 1 C-0.3 3.64 -3.6 6.28 -7 9 C-7.33 7.68 -7.66 6.36 -8 5 C-3.375 2 -3.375 2 0 2 C0 1.34 0 0.68 0 0 Z " fill="#4DC2D3" transform="translate(364,376)"/>
<path d="M0 0 C2.475 0.495 2.475 0.495 5 1 C5.103125 1.639375 5.20625 2.27875 5.3125 2.9375 C5.539375 3.618125 5.76625 4.29875 6 5 C6.99 5.33 7.98 5.66 9 6 C8.67 7.32 8.34 8.64 8 10 C6.66370254 8.52351062 5.33103329 7.0437367 4 5.5625 C3.2575 4.73878906 2.515 3.91507813 1.75 3.06640625 C0 1 0 1 0 0 Z " fill="#53C1D4" transform="translate(273,212)"/>
<path d="M0 0 C0.33 0 0.66 0 1 0 C1 2.97 1 5.94 1 9 C2.32 8.67 3.64 8.34 5 8 C4.67 9.32 4.34 10.64 4 12 C2.68 12.33 1.36 12.66 0 13 C0 8.71 0 4.42 0 0 Z " fill="#356E91" transform="translate(89,409)"/>
<path d="M0 0 C1.48484412 0.39595843 2.9628831 0.81750706 4.4375 1.25 C5.26121094 1.48203125 6.08492188 1.7140625 6.93359375 1.953125 C9 3 9 3 9.78515625 5.109375 C9.85605469 5.73328125 9.92695313 6.3571875 10 7 C5.61308455 6.49381745 3.15608721 3.86917019 0 1 C0 0.67 0 0.34 0 0 Z " fill="#41B6D2" transform="translate(265,205)"/>
<path d="M0 0 C0.33 0.66 0.66 1.32 1 2 C1.99 1.67 2.98 1.34 4 1 C3.67 1.99 3.34 2.98 3 4 C2.34 4 1.68 4 1 4 C1 4.66 1 5.32 1 6 C-0.98 6.99 -0.98 6.99 -3 8 C-3.75 6.25 -3.75 6.25 -4 4 C-2.0625 1.75 -2.0625 1.75 0 0 Z " fill="#31AAD9" transform="translate(380,129)"/>
<path d="M0 0 C0 3 0 3 -1.53125 4.82421875 C-2.1809375 5.43910156 -2.830625 6.05398438 -3.5 6.6875 C-4.1496875 7.31011719 -4.799375 7.93273437 -5.46875 8.57421875 C-5.9740625 9.04472656 -6.479375 9.51523437 -7 10 C-7.99 9.67 -8.98 9.34 -10 9 C-9.67 8.01 -9.34 7.02 -9 6 C-7.3364521 5.32558869 -5.66933058 4.6599679 -4 4 C-1.72808584 1.97959252 -1.72808584 1.97959252 0 0 Z " fill="#0059B6" transform="translate(132,380)"/>
<path d="M0 0 C0 0.66 0 1.32 0 2 C-4.38461538 5 -4.38461538 5 -7 5 C-7 5.66 -7 6.32 -7 7 C-8.32 7.33 -9.64 7.66 -11 8 C-9.60415208 4.62670085 -8.07634389 2.95767338 -5 1 C-2 0 -2 0 0 0 Z " fill="#06C9ED" transform="translate(363,376)"/>
<path d="M0 0 C1.65 0.99 3.3 1.98 5 3 C4.1875 4.9375 4.1875 4.9375 3 7 C2.01 7.33 1.02 7.66 0 8 C0 5.36 0 2.72 0 0 Z " fill="#024CA9" transform="translate(123,399)"/>
<path d="M0 0 C0.33 0 0.66 0 1 0 C1.33 2.64 1.66 5.28 2 8 C3.32 7.34 4.64 6.68 6 6 C4.92598892 8.91517292 4.22189824 10.77810176 2 13 C-0.20914 9.68629 -0.22481553 8.6553979 -0.125 4.8125 C-0.10695312 3.91144531 -0.08890625 3.01039063 -0.0703125 2.08203125 C-0.04710937 1.39496094 -0.02390625 0.70789063 0 0 Z " fill="#1B92C9" transform="translate(190,308)"/>
<path d="M0 0 C0.66 0 1.32 0 2 0 C2.33 2.64 2.66 5.28 3 8 C3.99 8.33 4.98 8.66 6 9 C5.01 9.495 5.01 9.495 4 10 C2 8 0 6 -2 4 C-1.34 2.68 -0.68 1.36 0 0 Z " fill="#05BCEB" transform="translate(277,208)"/>
<path d="M0 0 C-1.97420135 2.52259061 -2.96745642 2.9929808 -6.1875 3.6875 C-7.5796875 3.8421875 -7.5796875 3.8421875 -9 4 C-9 3.01 -9 2.02 -9 1 C-6.04335481 -0.4783226 -3.25770263 -0.06032783 0 0 Z " fill="#2AA2C8" transform="translate(303,409)"/>
<path d="M0 0 C0 0.99 0 1.98 0 3 C-0.99 3.66 -1.98 4.32 -3 5 C-3.33 5.99 -3.66 6.98 -4 8 C-4.99 8.33 -5.98 8.66 -7 9 C-6.3125 5.625 -6.3125 5.625 -5 2 C-2.375 0.5625 -2.375 0.5625 0 0 Z " fill="#1799C5" transform="translate(367,145)"/>
<path d="M0 0 C1.1055189 0.93590504 2.20935453 1.87379858 3.3125 2.8125 C3.92738281 3.33457031 4.54226563 3.85664063 5.17578125 4.39453125 C8.51952278 7.3373102 8.51952278 7.3373102 10 9 C10 9.66 10 10.32 10 11 C6.27382578 9.75794193 4.60708543 7.8889325 2 5 C2 4.34 2 3.68 2 3 C1.34 3 0.68 3 0 3 C0 2.01 0 1.02 0 0 Z " fill="#43C7D1" transform="translate(341,133)"/>
<path d="M0 0 C-2.297221 1.74271938 -4.59866729 3.39911152 -7 5 C-9.1875 4.625 -9.1875 4.625 -11 4 C-7.04396675 0.96704118 -5.03239385 -0.13243142 0 0 Z " fill="#4BBDD1" transform="translate(337,396)"/>
<path d="M0 0 C0 0.66 0 1.32 0 2 C-0.99 2.495 -0.99 2.495 -2 3 C-2 3.66 -2 4.32 -2 5 C-3.96147874 6.38938077 -5.96166576 7.7260411 -8 9 C-8.66 8.67 -9.32 8.34 -10 8 C-9.04578192 6.85073734 -8.08647955 5.70569459 -7.125 4.5625 C-6.59132812 3.92441406 -6.05765625 3.28632813 -5.5078125 2.62890625 C-3.68057607 0.65492285 -2.70796331 0 0 0 Z " fill="#68AED0" transform="translate(223,288)"/>
<path d="M0 0 C0.33 0 0.66 0 1 0 C1.76173392 4.3164922 2.16063604 7.74433453 1 12 C0.01 12.33 -0.98 12.66 -2 13 C-1.34 8.71 -0.68 4.42 0 0 Z " fill="#55BFCE" transform="translate(324,251)"/>
<path d="M0 0 C0.99 0 1.98 0 3 0 C3 0.66 3 1.32 3 2 C3.66 2 4.32 2 5 2 C5 2.66 5 3.32 5 4 C6.32 4.33 7.64 4.66 9 5 C8.67 5.66 8.34 6.32 8 7 C4.5625 5.75 4.5625 5.75 1 4 C0.0625 1.8125 0.0625 1.8125 0 0 Z " fill="#29AFCB" transform="translate(259,199)"/>
<path d="M0 0 C0.99 0.33 1.98 0.66 3 1 C1.35 2.98 -0.3 4.96 -2 7 C-2.99 6.67 -3.98 6.34 -5 6 C-3.35 4.02 -1.7 2.04 0 0 Z " fill="#008FD5" transform="translate(323,188)"/>
<path d="M0 0 C1.29312675 2.5862535 0.84290464 3.76416975 0.25 6.5625 C0.01023437 7.77099609 0.01023437 7.77099609 -0.234375 9.00390625 C-0.61335938 9.99197266 -0.61335938 9.99197266 -1 11 C-1.99 11.33 -2.98 11.66 -4 12 C-3.33989524 9.15449988 -2.48275034 6.47674001 -1.4375 3.75 C-1.16808594 3.04359375 -0.89867187 2.3371875 -0.62109375 1.609375 C-0.41613281 1.07828125 -0.21117187 0.5471875 0 0 Z " fill="#2BC8D9" transform="translate(412,312)"/>
<path d="M0 0 C2.475 0.495 2.475 0.495 5 1 C5 1.66 5 2.32 5 3 C7.475 3.99 7.475 3.99 10 5 C9.67 5.99 9.34 6.98 9 8 C8.01 7.34 7.02 6.68 6 6 C6 5.34 6 4.68 6 4 C4.68 3.67 3.36 3.34 2 3 C2 2.34 2 1.68 2 1 C1.34 0.67 0.68 0.34 0 0 Z " fill="#07B9E8" transform="translate(262,200)"/>
<path d="M0 0 C1.98 0.66 3.96 1.32 6 2 C5.67 2.66 5.34 3.32 5 4 C2.36 4 -0.28 4 -3 4 C-2.01 2.68 -1.02 1.36 0 0 Z " fill="#0598E8" transform="translate(240,416)"/>
<path d="M0 0 C-0.33 0.66 -0.66 1.32 -1 2 C-4.63 2 -8.26 2 -12 2 C-12 1.67 -12 1.34 -12 1 C-3.96428571 -1.27678571 -3.96428571 -1.27678571 0 0 Z " fill="#04A0E1" transform="translate(265,317)"/>
<path d="M0 0 C0.99 0.33 1.98 0.66 3 1 C-0.61328125 5.6875 -0.61328125 5.6875 -2 7 C-2.99 7 -3.98 7 -5 7 C-3.88820837 3.66462511 -2.52588702 2.36292656 0 0 Z " fill="#03A2E9" transform="translate(368,145)"/>
<path d="M0 0 C1.98 0.99 3.96 1.98 6 3 C6 3.66 6 4.32 6 5 C4.35 5.33 2.7 5.66 1 6 C0.4465236 3.92446352 0 2.15634036 0 0 Z " fill="#03D2EF" transform="translate(322,121)"/>
<path d="M0 0 C2.31 0 4.62 0 7 0 C7 0.66 7 1.32 7 2 C3.37 2.33 -0.26 2.66 -4 3 C-2.68 2.67 -1.36 2.34 0 2 C0 1.34 0 0.68 0 0 Z " fill="#56B2D1" transform="translate(265,417)"/>
<path d="M0 0 C0.66 0 1.32 0 2 0 C0.50902342 3.7952131 -1.75700849 5.61042731 -5 8 C-4.49396008 5.83125748 -4.00016187 4.00032373 -3 2 C-2.01 2 -1.02 2 0 2 C0 1.34 0 0.68 0 0 Z " fill="#3E72B3" transform="translate(112,398)"/>
<path d="M0 0 C0.33 1.32 0.66 2.64 1 4 C-1.375 5.5625 -1.375 5.5625 -4 7 C-4.66 6.67 -5.32 6.34 -6 6 C-4.02 4.02 -2.04 2.04 0 0 Z " fill="#469FCA" transform="translate(202,307)"/>
<path d="M0 0 C0.66 0 1.32 0 2 0 C0.4169423 4.2742558 -2.50568404 6.26531794 -6 9 C-4.44451509 5.64972481 -2.6275691 2.6275691 0 0 Z " fill="#06C3EB" transform="translate(299,208)"/>
<path d="M0 0 C0.99 0.33 1.98 0.66 3 1 C2.01 1.33 1.02 1.66 0 2 C-0.33 2.66 -0.66 3.32 -1 4 C-1.33 4.66 -1.66 5.32 -2 6 C-2.99 6.33 -3.98 6.66 -5 7 C-5 6.01 -5 5.02 -5 4 C-4.34 4 -3.68 4 -3 4 C-3 3.34 -3 2.68 -3 2 C-2.01 1.34 -1.02 0.68 0 0 Z " fill="#06CDEF" transform="translate(309,198)"/>
<path d="M0 0 C0.66 0 1.32 0 2 0 C0.98823563 3.40320742 0.35156418 4.75725331 -2.625 6.8125 C-3.40875 7.204375 -4.1925 7.59625 -5 8 C-4.67 6.68 -4.34 5.36 -4 4 C-3.01 4 -2.02 4 -1 4 C-0.67 2.68 -0.34 1.36 0 0 Z " fill="#51C3D0" transform="translate(376,365)"/>
<path d="M0 0 C0.33 0 0.66 0 1 0 C1 2.97 1 5.94 1 9 C-0.32 8.34 -1.64 7.68 -3 7 C-1.125 2.25 -1.125 2.25 0 0 Z " fill="#39BAD9" transform="translate(317,275)"/>
<path d="M0 0 C3.0916909 2.52956528 3.90931332 5.22454612 5 9 C3.0625 8.4375 3.0625 8.4375 1 7 C0.25 3.375 0.25 3.375 0 0 Z " fill="#0DCEE4" transform="translate(408,152)"/>
<path d="M0 0 C3.77545388 1.09068668 6.47043472 1.9083091 9 5 C5.26512223 4.5020163 3.18762365 4.12508244 0 2 C0 1.34 0 0.68 0 0 Z " fill="#5AC8D6" transform="translate(304,108)"/>
<path d="M0 0 C2 2 2 2 2 5 C1.01 5 0.02 5 -1 5 C-1 5.66 -1 6.32 -1 7 C-1.99 6.67 -2.98 6.34 -4 6 C-2.68 4.02 -1.36 2.04 0 0 Z " fill="#0771B7" transform="translate(113,393)"/>
<path d="M0 0 C0 3 0 3 -2.5 5.6875 C-3.325 6.450625 -4.15 7.21375 -5 8 C-5 5 -5 5 -2.5 2.3125 C-1.675 1.549375 -0.85 0.78625 0 0 Z " fill="#1F9FC8" transform="translate(309,289)"/>
<path d="M0 0 C2.46254526 2.1413437 3.69050349 3.69870394 4 7 C3.01 8.485 3.01 8.485 2 10 C0.68373308 6.38026598 0 3.90432869 0 0 Z " fill="#3B8EB1" transform="translate(319,199)"/>
<path d="M0 0 C5.66153846 2.46153846 5.66153846 2.46153846 7.375 5.1875 C7.58125 5.785625 7.7875 6.38375 8 7 C2.33846154 4.53846154 2.33846154 4.53846154 0.625 1.8125 C0.41875 1.214375 0.2125 0.61625 0 0 Z " fill="#08D8EF" transform="translate(329,127)"/>
<path d="M0 0 C1.98 0 3.96 0 6 0 C6 0.99 6 1.98 6 3 C4.68 3.33 3.36 3.66 2 4 C1.34 2.68 0.68 1.36 0 0 Z " fill="#06ADEE" transform="translate(239,89)"/>
<path d="M0 0 C-5.625 4 -5.625 4 -9 4 C-9 3.34 -9 2.68 -9 2 C-3.375 -1.125 -3.375 -1.125 0 0 Z " fill="#4DBECF" transform="translate(346,392)"/>
<path d="M0 0 C1.32 0.33 2.64 0.66 4 1 C4.33 2.32 4.66 3.64 5 5 C4.01 5.495 4.01 5.495 3 6 C3 5.01 3 4.02 3 3 C2.01 3 1.02 3 0 3 C0 2.01 0 1.02 0 0 Z " fill="#034FA1" transform="translate(120,390)"/>
<path d="M0 0 C0.66 0 1.32 0 2 0 C1.6875 1.9375 1.6875 1.9375 1 4 C0.01 4.33 -0.98 4.66 -2 5 C-2.33 5.66 -2.66 6.32 -3 7 C-3 3.47967572 -2.29648649 2.5614657 0 0 Z " fill="#4DCAD2" transform="translate(388,352)"/>
<path d="M0 0 C0.66 0 1.32 0 2 0 C2.33 2.97 2.66 5.94 3 9 C0.90250005 6.64031256 0.03094296 5.45383006 -0.1875 2.25 C-0.125625 1.5075 -0.06375 0.765 0 0 Z " fill="#37C3C9" transform="translate(414,162)"/>
<path d="M0 0 C3.08089673 2.77280706 4.68775452 5.06326356 6 9 C5.01 8.34 4.02 7.68 3 7 C3 6.34 3 5.68 3 5 C2.01 4.67 1.02 4.34 0 4 C0 2.68 0 1.36 0 0 Z " fill="#5DC2D4" transform="translate(397,130)"/>
</svg>
